<svg width="31" height="31" viewBox="0 0 31 31" fill="none" xmlns="http://www.w3.org/2000/svg">
<path fill-rule="evenodd" clip-rule="evenodd" d="M1.61462 5.8125C1.61462 5.27747 2.04835 4.84375 2.58337 4.84375H28.4167C28.9517 4.84375 29.3855 5.27747 29.3855 5.8125V15.5C29.3855 16.035 28.9517 16.4687 28.4167 16.4687C27.8817 16.4687 27.448 16.035 27.448 15.5V6.78125H3.55212V24.2187H15.5C16.0351 24.2187 16.4688 24.6525 16.4688 25.1875C16.4688 25.7225 16.0351 26.1562 15.5 26.1562H2.58337C2.04835 26.1562 1.61462 25.7225 1.61462 25.1875V5.8125Z" fill="#1C1B1F"/>
<path fill-rule="evenodd" clip-rule="evenodd" d="M29.0218 18.6186C29.4396 18.9528 29.5073 19.5624 29.1731 19.9802L24.0064 26.4385C23.6722 26.8563 23.0626 26.9241 22.6448 26.5898L19.4156 24.0065C18.9978 23.6723 18.9301 23.0626 19.2643 22.6449C19.5985 22.2271 20.2082 22.1593 20.626 22.4936L23.0987 24.4717L27.6602 18.7699C27.9944 18.3521 28.604 18.2843 29.0218 18.6186Z" fill="#1C1B1F"/>
<path fill-rule="evenodd" clip-rule="evenodd" d="M1.80831 5.23131C2.12932 4.80329 2.73654 4.71654 3.16456 5.03756L15.5 14.2891L27.8354 5.03756C28.2634 4.71654 28.8706 4.80329 29.1916 5.23131C29.5127 5.65933 29.4259 6.26654 28.9979 6.58756L16.0812 16.2751C15.7368 16.5334 15.2632 16.5334 14.9187 16.2751L2.00206 6.58756C1.57404 6.26654 1.48729 5.65933 1.80831 5.23131Z" fill="#1C1B1F"/>
</svg>
