<svg width="31" height="31" viewBox="0 0 31 31" fill="none" xmlns="http://www.w3.org/2000/svg">
<path fill-rule="evenodd" clip-rule="evenodd" d="M4.84375 12.271C4.84375 6.38569 9.6147 1.61475 15.5 1.61475C21.3853 1.61475 26.1562 6.38569 26.1562 12.271C26.1562 16.8122 23.5555 21.0693 21.0962 24.1025C19.8517 25.6374 18.6095 26.9 17.6788 27.779C17.2129 28.2191 16.8234 28.5644 16.5487 28.8012C16.4113 28.9196 16.3025 29.011 16.227 29.0736C16.1893 29.1049 16.1598 29.129 16.1393 29.1457L16.1154 29.1651L16.1085 29.1706L16.1064 29.1723L16.1057 29.1729C16.1054 29.1731 16.1052 29.1733 15.5 28.4168C14.8948 29.1733 14.8946 29.1731 14.8943 29.1729L14.8936 29.1723L14.8915 29.1706L14.8846 29.1651L14.8607 29.1457C14.8402 29.129 14.8107 29.1049 14.773 29.0736C14.6975 29.011 14.5887 28.9196 14.4513 28.8012C14.1766 28.5644 13.7871 28.2191 13.3212 27.779C12.3905 26.9 11.1483 25.6374 9.90377 24.1025C7.44448 21.0693 4.84375 16.8122 4.84375 12.271ZM15.5 28.4168L14.8948 29.1733C15.2486 29.4563 15.7514 29.4563 16.1052 29.1733L15.5 28.4168ZM15.5 27.1452C15.7309 26.9419 16.0189 26.6817 16.3485 26.3704C17.2342 25.5339 18.4139 24.3343 19.5913 22.8822C21.9757 19.9414 24.2187 16.1256 24.2187 12.271C24.2187 7.45574 20.3153 3.55225 15.5 3.55225C10.6847 3.55225 6.78125 7.45574 6.78125 12.271C6.78125 16.1256 9.02427 19.9414 11.4087 22.8822C12.5861 24.3343 13.7658 25.5339 14.6515 26.3704C14.9811 26.6817 15.2691 26.9419 15.5 27.1452Z" fill="#1C1B1F"/>
<path fill-rule="evenodd" clip-rule="evenodd" d="M10.6562 12.271C10.6562 9.59587 12.8249 7.42725 15.5 7.42725C18.1751 7.42725 20.3437 9.59587 20.3437 12.271C20.3437 14.9461 18.1751 17.1147 15.5 17.1147C12.8249 17.1147 10.6562 14.9461 10.6562 12.271ZM15.5 9.36475C13.8949 9.36475 12.5937 10.6659 12.5937 12.271C12.5937 13.8761 13.8949 15.1772 15.5 15.1772C17.1051 15.1772 18.4062 13.8761 18.4062 12.271C18.4062 10.6659 17.1051 9.36475 15.5 9.36475Z" fill="#1C1B1F"/>
</svg>
