<svg width="442" height="442" viewBox="0 0 442 442" fill="none" xmlns="http://www.w3.org/2000/svg">
<g filter="url(#filter0_f_60_216)">
<path d="M323.052 331.907L370.322 202.035C382.587 168.338 365.167 130.961 331.459 118.692L201.587 71.4224C167.889 59.1573 130.509 76.5878 118.244 110.286L70.9743 240.158C58.7093 273.856 76.1397 311.236 109.838 323.501L239.71 370.77C273.418 383.039 310.788 365.604 323.052 331.907Z" stroke="#EAC748" stroke-width="20"/>
</g>
<g filter="url(#filter1_f_60_216)">
<path d="M308.802 359.197L356.072 229.325C367.392 198.222 351.31 163.715 320.197 152.39L190.325 105.121C159.222 93.8003 124.711 109.893 113.391 140.996L66.121 270.868C54.8004 301.971 70.893 336.482 101.996 347.802L231.868 395.072C262.981 406.396 297.482 390.299 308.802 359.197Z" stroke="#EAC748" stroke-width="10"/>
</g>
<defs>
<filter id="filter0_f_60_216" x="0.0447998" y="0.492676" width="441.208" height="441.208" filterUnits="userSpaceOnUse" color-interpolation-filters="sRGB">
<feFlood flood-opacity="0" result="BackgroundImageFix"/>
<feBlend mode="normal" in="SourceGraphic" in2="BackgroundImageFix" result="shape"/>
<feGaussianBlur stdDeviation="28.5" result="effect1_foregroundBlur_60_216"/>
</filter>
<filter id="filter1_f_60_216" x="32.4957" y="71.4956" width="357.202" height="357.203" filterUnits="userSpaceOnUse" color-interpolation-filters="sRGB">
<feFlood flood-opacity="0" result="BackgroundImageFix"/>
<feBlend mode="normal" in="SourceGraphic" in2="BackgroundImageFix" result="shape"/>
<feGaussianBlur stdDeviation="12.5" result="effect1_foregroundBlur_60_216"/>
</filter>
</defs>
</svg>
