<svg width="139" height="45" viewBox="0 0 139 45" fill="none" xmlns="http://www.w3.org/2000/svg">
<rect x="0.824463" width="138" height="45" rx="7" fill="#0C0D10"/>
<path d="M94.5791 21.601V24.1784H92.9277V25.8687H94.5791V31.6118C94.5791 33.5728 95.486 34.3573 97.7675 34.3573C98.1684 34.3573 98.5502 34.3106 98.8843 34.2545V32.583C98.598 32.611 98.4166 32.6297 98.1016 32.6297C97.0802 32.6297 96.6315 32.1627 96.6315 31.0982V25.8687H98.8843V24.1784H96.6315V21.601H94.5791Z" fill="white"/>
<path d="M104.696 34.4973C107.732 34.4973 109.593 32.5083 109.593 29.2118C109.593 25.934 107.722 23.9356 104.696 23.9356C101.661 23.9356 99.7897 25.934 99.7897 29.2118C99.7897 32.5083 101.651 34.4973 104.696 34.4973ZM104.696 32.7137C102.911 32.7137 101.909 31.4343 101.909 29.2118C101.909 27.0079 102.911 25.7193 104.696 25.7193C106.472 25.7193 107.484 27.0079 107.484 29.2118C107.484 31.425 106.472 32.7137 104.696 32.7137Z" fill="white"/>
<path d="M111.186 34.3012H113.238V28.2966C113.238 26.8679 114.336 25.906 115.892 25.906C116.255 25.906 116.866 25.9714 117.038 26.0274V24.0477C116.818 23.9917 116.427 23.9636 116.121 23.9636C114.766 23.9636 113.611 24.692 113.315 25.6912H113.162V24.1317H111.186V34.3012Z" fill="white"/>
<path d="M122.134 25.6445C123.651 25.6445 124.644 26.6811 124.692 28.278H119.442C119.556 26.6904 120.616 25.6445 122.134 25.6445ZM124.682 31.5557C124.3 32.3495 123.451 32.7884 122.21 32.7884C120.568 32.7884 119.508 31.6585 119.442 29.8748V29.7628H126.782V29.0624C126.782 25.8687 125.036 23.9356 122.143 23.9356C119.213 23.9356 117.351 25.9994 117.351 29.2492C117.351 32.4989 119.174 34.4973 122.153 34.4973C124.53 34.4973 126.191 33.3767 126.658 31.5557H124.682Z" fill="white"/>
<path d="M81.12 30.5458C81.2783 33.043 83.4055 34.64 86.5716 34.64C89.9554 34.64 92.0727 32.9655 92.0727 30.2941C92.0727 28.1938 90.8657 27.0323 87.937 26.3645L86.3639 25.987C84.5038 25.5611 83.7518 24.9901 83.7518 23.9931C83.7518 22.7349 84.9193 21.9122 86.6706 21.9122C88.3328 21.9122 89.4805 22.7155 89.6883 24.0028H91.8452C91.7165 21.6508 89.5992 19.9957 86.7003 19.9957C83.5836 19.9957 81.5059 21.6508 81.5059 24.1383C81.5059 26.1903 82.6833 27.4098 85.2656 28.0002L87.1059 28.4358C88.9957 28.8713 89.8268 29.5101 89.8268 30.5748C89.8268 31.8137 88.5208 32.7139 86.7398 32.7139C84.8303 32.7139 83.5045 31.8718 83.3165 30.5458H81.12Z" fill="white"/>
<path d="M59.8596 23.9636C58.4468 23.9636 57.2249 24.6547 56.5949 25.8126H56.4422V24.1317H54.4662V37.6817H56.5185V32.7604H56.6808C57.2249 33.8343 58.3991 34.4693 59.8787 34.4693C62.5038 34.4693 64.1743 32.4429 64.1743 29.2118C64.1743 25.9807 62.5038 23.9636 59.8596 23.9636ZM59.2773 32.667C57.559 32.667 56.4803 31.341 56.4803 29.2211C56.4803 27.092 57.559 25.7659 59.2868 25.7659C61.0242 25.7659 62.0647 27.064 62.0647 29.2118C62.0647 31.369 61.0242 32.667 59.2773 32.667Z" fill="white"/>
<path d="M71.3559 23.9636C69.9431 23.9636 68.7212 24.6547 68.0912 25.8126H67.9385V24.1317H65.9625V37.6817H68.0148V32.7604H68.1771C68.7212 33.8343 69.8954 34.4693 71.375 34.4693C74.0001 34.4693 75.6707 32.4429 75.6707 29.2118C75.6707 25.9807 74.0001 23.9636 71.3559 23.9636ZM70.7736 32.667C69.0553 32.667 67.9767 31.341 67.9767 29.2211C67.9767 27.092 69.0553 25.7659 70.7832 25.7659C72.5205 25.7659 73.561 27.064 73.561 29.2118C73.561 31.369 72.5205 32.667 70.7736 32.667Z" fill="white"/>
<path d="M50.7839 34.3012H53.1386L47.9838 20.3345H45.5994L40.4446 34.3012H42.7202L44.0361 30.5942H49.4778L50.7839 34.3012ZM46.6778 22.8704H46.846L48.9139 28.7745H44.6001L46.6778 22.8704Z" fill="white"/>
<path d="M41.8232 9.79977V16.5374H44.3099C46.3623 16.5374 47.5508 15.3001 47.5508 13.1476C47.5508 11.0278 46.3528 9.79977 44.3099 9.79977H41.8232ZM42.8924 10.7523H44.1906C45.6177 10.7523 46.4625 11.6394 46.4625 13.1616C46.4625 14.7071 45.6321 15.5849 44.1906 15.5849H42.8924V10.7523Z" fill="white"/>
<path d="M51.1906 16.6355C52.7084 16.6355 53.6392 15.6409 53.6392 13.9927C53.6392 12.3538 52.7037 11.3546 51.1906 11.3546C49.6728 11.3546 48.7373 12.3538 48.7373 13.9927C48.7373 15.6409 49.6681 16.6355 51.1906 16.6355ZM51.1906 15.7437C50.2981 15.7437 49.7969 15.104 49.7969 13.9927C49.7969 12.8908 50.2981 12.2464 51.1906 12.2464C52.0784 12.2464 52.5843 12.8908 52.5843 13.9927C52.5843 15.0993 52.0784 15.7437 51.1906 15.7437Z" fill="white"/>
<path d="M61.5651 11.4527H60.5389L59.613 15.3328H59.5318L58.4627 11.4527H57.4795L56.4103 15.3328H56.334L55.4032 11.4527H54.3627L55.7946 16.5374H56.8494L57.9186 12.7927H57.9997L59.0736 16.5374H60.138L61.5651 11.4527Z" fill="white"/>
<path d="M62.7469 16.5374H63.7731V13.5631C63.7731 12.7694 64.2551 12.2744 65.014 12.2744C65.7729 12.2744 66.1357 12.6807 66.1357 13.4978V16.5374H67.1619V13.2456C67.1619 12.0363 66.5223 11.3546 65.3625 11.3546C64.5797 11.3546 64.0642 11.6955 63.8113 12.2604H63.7349V11.4527H62.7469V16.5374Z" fill="white"/>
<path d="M68.778 16.5374H69.8042V9.46826H68.778V16.5374Z" fill="white"/>
<path d="M73.6636 16.6355C75.1814 16.6355 76.1121 15.6409 76.1121 13.9927C76.1121 12.3538 75.1766 11.3546 73.6636 11.3546C72.1458 11.3546 71.2103 12.3538 71.2103 13.9927C71.2103 15.6409 72.141 16.6355 73.6636 16.6355ZM73.6636 15.7437C72.771 15.7437 72.2699 15.104 72.2699 13.9927C72.2699 12.8908 72.771 12.2464 73.6636 12.2464C74.5514 12.2464 75.0573 12.8908 75.0573 13.9927C75.0573 15.0993 74.5514 15.7437 73.6636 15.7437Z" fill="white"/>
<path d="M79.1697 15.7763C78.6112 15.7763 78.2055 15.5102 78.2055 15.0526C78.2055 14.6044 78.5301 14.3662 79.246 14.3195L80.5156 14.2402V14.6651C80.5156 15.2954 79.9429 15.7763 79.1697 15.7763ZM78.9071 16.6215C79.5897 16.6215 80.1577 16.332 80.4679 15.823H80.549V16.5374H81.537V13.0635C81.537 11.9896 80.802 11.3546 79.499 11.3546C78.3201 11.3546 77.48 11.9149 77.375 12.7881H78.3678C78.4824 12.4285 78.8785 12.2231 79.4513 12.2231C80.1529 12.2231 80.5156 12.5266 80.5156 13.0635V13.5024L79.1076 13.5818C77.8714 13.6565 77.1746 14.1841 77.1746 15.0993C77.1746 16.0285 77.9048 16.6215 78.9071 16.6215Z" fill="white"/>
<path d="M85.0194 16.6215C85.7353 16.6215 86.3415 16.2899 86.6517 15.7343H86.7329V16.5374H87.7161V9.46826H86.6899V12.2604H86.6136C86.332 11.7001 85.7306 11.3686 85.0194 11.3686C83.7068 11.3686 82.862 12.3865 82.862 13.9927C82.862 15.6036 83.6973 16.6215 85.0194 16.6215ZM85.3105 12.2698C86.1697 12.2698 86.709 12.9375 86.709 13.9974C86.709 15.062 86.1744 15.7203 85.3105 15.7203C84.4419 15.7203 83.9216 15.0713 83.9216 13.9927C83.9216 12.9235 84.4466 12.2698 85.3105 12.2698Z" fill="white"/>
<path d="M94.3706 16.6355C95.8884 16.6355 96.8191 15.6409 96.8191 13.9927C96.8191 12.3538 95.8836 11.3546 94.3706 11.3546C92.8528 11.3546 91.9173 12.3538 91.9173 13.9927C91.9173 15.6409 92.848 16.6355 94.3706 16.6355ZM94.3706 15.7437C93.478 15.7437 92.9769 15.104 92.9769 13.9927C92.9769 12.8908 93.478 12.2464 94.3706 12.2464C95.2583 12.2464 95.7643 12.8908 95.7643 13.9927C95.7643 15.0993 95.2583 15.7437 94.3706 15.7437Z" fill="white"/>
<path d="M98.1775 16.5374H99.2036V13.5631C99.2036 12.7694 99.6857 12.2744 100.445 12.2744C101.204 12.2744 101.566 12.6807 101.566 13.4978V16.5374H102.592V13.2456C102.592 12.0363 101.953 11.3546 100.793 11.3546C100.01 11.3546 99.4948 11.6955 99.2418 12.2604H99.1655V11.4527H98.1775V16.5374Z" fill="white"/>
<path d="M107.319 10.1873V11.476H106.493V12.3211H107.319V15.1927C107.319 16.1732 107.772 16.5654 108.913 16.5654C109.113 16.5654 109.304 16.5421 109.471 16.5141V15.6783C109.328 15.6923 109.237 15.7016 109.08 15.7016C108.569 15.7016 108.345 15.4682 108.345 14.9359V12.3211H109.471V11.476H108.345V10.1873H107.319Z" fill="white"/>
<path d="M110.849 16.5374H111.875V13.5678C111.875 12.7974 112.343 12.2791 113.183 12.2791C113.908 12.2791 114.295 12.69 114.295 13.5024V16.5374H115.321V13.255C115.321 12.0457 114.638 11.3593 113.531 11.3593C112.748 11.3593 112.199 11.7001 111.946 12.2698H111.865V9.46826H110.849V16.5374Z" fill="white"/>
<path d="M119.023 12.2091C119.782 12.2091 120.278 12.7274 120.302 13.5258H117.677C117.734 12.732 118.264 12.2091 119.023 12.2091ZM120.297 15.1647C120.106 15.5616 119.682 15.781 119.061 15.781C118.24 15.781 117.71 15.216 117.677 14.3242V14.2682H121.347V13.918C121.347 12.3211 120.474 11.3546 119.028 11.3546C117.562 11.3546 116.632 12.3865 116.632 14.0114C116.632 15.6363 117.543 16.6355 119.032 16.6355C120.221 16.6355 121.051 16.0752 121.285 15.1647H120.297Z" fill="white"/>
<path d="M29.3089 22.8385C29.3338 20.9473 30.372 19.1579 32.0189 18.1674C30.98 16.7158 29.2397 15.7954 27.4291 15.74C25.498 15.5417 23.6258 16.8704 22.6418 16.8704C21.6387 16.8704 20.1235 15.7597 18.492 15.7925C16.3654 15.8597 14.3828 17.0425 13.3481 18.8614C11.124 22.6283 12.783 28.1645 14.9135 31.2095C15.9795 32.7005 17.2252 34.366 18.8553 34.3069C20.4504 34.2422 21.0462 33.3119 22.9716 33.3119C24.8792 33.3119 25.4381 34.3069 27.1013 34.2694C28.8129 34.2422 29.8913 32.7717 30.9198 31.2666C31.6857 30.2042 32.2751 29.03 32.666 27.7875C30.6545 26.9553 29.3113 24.975 29.3089 22.8385Z" fill="white"/>
<path d="M26.1675 13.7375C27.1007 12.6415 27.5605 11.2328 27.4492 9.81055C26.0234 9.95704 24.7063 10.6237 23.7605 11.6776C22.8355 12.7074 22.3542 14.0913 22.4452 15.4592C23.8715 15.4735 25.2737 14.825 26.1675 13.7375Z" fill="white"/>
</svg>
