<svg width="153" height="45" viewBox="0 0 153 45" fill="none" xmlns="http://www.w3.org/2000/svg">
<rect width="153" height="45" rx="5" fill="black"/>
<path d="M77.2207 24.47C74.5551 24.47 72.3825 26.4826 72.3825 29.2546C72.3825 32.0097 74.5551 34.0392 77.2207 34.0392C79.8874 34.0392 82.06 32.0097 82.06 29.2546C82.0589 26.4826 79.8863 24.47 77.2207 24.47ZM77.2207 32.156C75.7598 32.156 74.5007 30.9601 74.5007 29.2557C74.5007 27.5334 75.761 26.3555 77.2207 26.3555C78.6816 26.3555 79.9407 27.5334 79.9407 29.2557C79.9407 30.959 78.6816 32.156 77.2207 32.156ZM66.6648 24.47C63.9992 24.47 61.8266 26.4826 61.8266 29.2546C61.8266 32.0097 63.9992 34.0392 66.6648 34.0392C69.3316 34.0392 71.5042 32.0097 71.5042 29.2546C71.5042 26.4826 69.3316 24.47 66.6648 24.47ZM66.6648 32.156C65.204 32.156 63.9448 30.9601 63.9448 29.2557C63.9448 27.5334 65.2051 26.3555 66.6648 26.3555C68.1257 26.3555 69.3848 27.5334 69.3848 29.2557C69.386 30.959 68.1257 32.156 66.6648 32.156ZM54.1098 25.9392V27.9687H59.0035C58.8573 29.1106 58.4742 29.9442 57.8894 30.5236C57.1777 31.2301 56.0636 32.0097 54.1098 32.0097C51.0974 32.0097 48.7423 29.5989 48.7423 26.6086C48.7423 23.6184 51.0974 21.2075 54.1098 21.2075C55.735 21.2075 56.9216 21.842 57.7976 22.6576L59.2404 21.2255C58.0164 20.0656 56.3923 19.178 54.1098 19.178C49.9833 19.178 46.5142 22.5125 46.5142 26.6086C46.5142 30.7047 49.9833 34.0392 54.1098 34.0392C56.3368 34.0392 58.0175 33.3136 59.331 31.9546C60.682 30.6136 61.1024 28.7281 61.1024 27.206C61.1024 26.7357 61.0662 26.3004 60.9925 25.9381H54.1098V25.9392ZM105.459 27.5154C105.058 26.4466 103.834 24.47 101.332 24.47C98.8492 24.47 96.7854 26.4095 96.7854 29.2546C96.7854 31.9366 98.8311 34.0392 101.569 34.0392C103.778 34.0392 105.056 32.6982 105.587 31.9186L103.944 30.8307C103.396 31.6284 102.647 32.1537 101.569 32.1537C100.493 32.1537 99.7253 31.6644 99.2323 30.7036L105.678 28.0576L105.459 27.5154ZM98.8855 29.1106C98.8311 27.2611 100.328 26.3195 101.406 26.3195C102.246 26.3195 102.958 26.7369 103.196 27.3342L98.8855 29.1106ZM93.6461 33.7501H95.7632V19.6865H93.6461V33.7501ZM90.1758 25.5399H90.1033C89.6284 24.9774 88.715 24.47 87.5658 24.47C85.1552 24.47 82.9463 26.5726 82.9463 29.2737C82.9463 31.9557 85.1552 34.0404 87.5658 34.0404C88.7161 34.0404 89.6284 33.533 90.1033 32.9536H90.1758V33.6421C90.1758 35.4725 89.1898 36.4512 87.602 36.4512C86.3055 36.4512 85.502 35.5276 85.1733 34.748L83.3294 35.5096C83.8586 36.7775 85.264 38.3367 87.602 38.3367C90.0852 38.3367 92.1852 36.8866 92.1852 33.3519V24.7614H90.177V25.5399H90.1758ZM87.7482 32.156C86.2874 32.156 85.0645 30.941 85.0645 29.2737C85.0645 27.5874 86.2874 26.3555 87.7482 26.3555C89.1898 26.3555 90.322 27.5874 90.322 29.2737C90.322 30.941 89.1898 32.156 87.7482 32.156ZM115.38 19.6865H110.313V33.7501H112.427V28.4221H115.379C117.723 28.4221 120.028 26.738 120.028 24.0549C120.028 21.3717 117.724 19.6865 115.38 19.6865ZM115.434 26.4646H112.427V21.644H115.434C117.015 21.644 117.913 22.9434 117.913 24.0549C117.913 25.1439 117.015 26.4646 115.434 26.4646ZM128.504 24.4452C126.973 24.4452 125.387 25.1146 124.731 26.5985L126.608 27.3759C127.009 26.5985 127.757 26.3442 128.54 26.3442C129.634 26.3442 130.746 26.9956 130.764 28.1532V28.2984C130.381 28.0812 129.56 27.7561 128.558 27.7561C126.535 27.7561 124.475 28.8597 124.475 30.9219C124.475 32.804 126.134 34.0156 127.993 34.0156C129.414 34.0156 130.198 33.3822 130.69 32.6397H130.763V33.7254H132.805V28.3332C132.806 25.838 130.927 24.4452 128.504 24.4452ZM128.248 32.1526C127.557 32.1526 126.59 31.8084 126.59 30.9579C126.59 29.8722 127.793 29.456 128.833 29.456C129.761 29.456 130.199 29.6551 130.764 29.9262C130.6 31.2301 129.47 32.1526 128.248 32.1526ZM140.242 24.7524L137.818 30.8499H137.745L135.229 24.7524H132.951L136.724 33.2742L134.573 38.015H136.778L142.594 24.7524H140.242ZM121.195 33.7501H123.309V19.6865H121.195V33.7501Z" fill="white"/>
<path d="M53.7405 11.5233C53.7405 12.4661 53.4595 13.2165 52.8962 13.7767C52.257 14.4427 51.4229 14.7757 50.3983 14.7757C49.4169 14.7757 48.5816 14.4382 47.8959 13.7632C47.2091 13.0871 46.8657 12.2501 46.8657 11.2511C46.8657 10.251 47.2091 9.41397 47.8959 8.73897C48.5816 8.06284 49.4169 7.72534 50.3983 7.72534C50.8857 7.72534 51.3515 7.81984 51.7935 8.00772C52.2366 8.19672 52.5913 8.44759 52.8565 8.76147L52.2593 9.35547C51.8093 8.82109 51.1894 8.55447 50.3972 8.55447C49.6809 8.55447 49.0621 8.80422 48.5397 9.30372C48.0172 9.80322 47.7565 10.4523 47.7565 11.25C47.7565 12.0476 48.0172 12.6967 48.5397 13.1962C49.0621 13.6957 49.6809 13.9455 50.3972 13.9455C51.1565 13.9455 51.7901 13.6946 52.2967 13.1917C52.6253 12.8643 52.8157 12.4087 52.8667 11.8248H50.3972V11.0137H53.6918C53.7258 11.1903 53.7405 11.3602 53.7405 11.5233Z" fill="white"/>
<path d="M58.9653 8.70416H55.869V10.8439H58.6616V11.655H55.869V13.7948H58.9653V14.625H54.9952V7.87503H58.9653V8.70416Z" fill="white"/>
<path d="M62.6496 14.625H61.7758V8.70416H59.8764V7.87503H64.5491V8.70416H62.6496V14.625Z" fill="white"/>
<path d="M67.9298 14.625V7.87503H68.8036V14.625H67.9298Z" fill="white"/>
<path d="M72.6786 14.625H71.8048V8.70416H69.9054V7.87503H74.5781V8.70416H72.6786V14.625Z" fill="white"/>
<path d="M83.4235 13.7531C82.7549 14.4349 81.9241 14.7758 80.9302 14.7758C79.9362 14.7758 79.1055 14.4349 78.438 13.7531C77.7693 13.0714 77.4361 12.2366 77.4361 11.25C77.4361 10.2634 77.7693 9.42864 78.438 8.74689C79.1055 8.06514 79.9362 7.72314 80.9302 7.72314C81.9184 7.72314 82.7481 8.06627 83.419 8.75139C84.0899 9.43652 84.4254 10.269 84.4254 11.25C84.4254 12.2366 84.0911 13.0714 83.4235 13.7531ZM79.0828 13.1873C79.586 13.6935 80.2014 13.9455 80.9302 13.9455C81.6589 13.9455 82.2754 13.6924 82.7775 13.1873C83.2807 12.681 83.5335 12.0353 83.5335 11.25C83.5335 10.4648 83.2807 9.81902 82.7775 9.31277C82.2754 8.80652 81.6589 8.55452 80.9302 8.55452C80.2014 8.55452 79.586 8.80764 79.0828 9.31277C78.5808 9.81902 78.328 10.4648 78.328 11.25C78.328 12.0353 78.5808 12.681 79.0828 13.1873Z" fill="white"/>
<path d="M85.6517 14.625V7.87503H86.7147L90.0195 13.1254H90.0569L90.0195 11.8249V7.87503H90.8933V14.625H89.981L86.5232 9.11928H86.4858L86.5232 10.4198V14.625H85.6517Z" fill="white"/>
<path d="M53.7405 11.5233C53.7405 12.4661 53.4595 13.2165 52.8962 13.7767C52.257 14.4427 51.4229 14.7757 50.3983 14.7757C49.4169 14.7757 48.5816 14.4382 47.8959 13.7632C47.2091 13.0871 46.8657 12.2501 46.8657 11.2511C46.8657 10.251 47.2091 9.41397 47.8959 8.73897C48.5816 8.06284 49.4169 7.72534 50.3983 7.72534C50.8857 7.72534 51.3515 7.81984 51.7935 8.00772C52.2366 8.19672 52.5913 8.44759 52.8565 8.76147L52.2593 9.35547C51.8093 8.82109 51.1894 8.55447 50.3972 8.55447C49.6809 8.55447 49.0621 8.80422 48.5397 9.30372C48.0172 9.80322 47.7565 10.4523 47.7565 11.25C47.7565 12.0476 48.0172 12.6967 48.5397 13.1962C49.0621 13.6957 49.6809 13.9455 50.3972 13.9455C51.1565 13.9455 51.7901 13.6946 52.2967 13.1917C52.6253 12.8643 52.8157 12.4087 52.8667 11.8248H50.3972V11.0137H53.6918C53.7258 11.1903 53.7405 11.3602 53.7405 11.5233Z" stroke="white" stroke-width="0.2" stroke-miterlimit="10"/>
<path d="M58.9653 8.70416H55.869V10.8439H58.6616V11.655H55.869V13.7948H58.9653V14.625H54.9952V7.87503H58.9653V8.70416Z" stroke="white" stroke-width="0.2" stroke-miterlimit="10"/>
<path d="M62.6496 14.625H61.7758V8.70416H59.8764V7.87503H64.5491V8.70416H62.6496V14.625Z" stroke="white" stroke-width="0.2" stroke-miterlimit="10"/>
<path d="M67.9298 14.625V7.87503H68.8036V14.625H67.9298Z" stroke="white" stroke-width="0.2" stroke-miterlimit="10"/>
<path d="M72.6786 14.625H71.8048V8.70416H69.9054V7.87503H74.5781V8.70416H72.6786V14.625Z" stroke="white" stroke-width="0.2" stroke-miterlimit="10"/>
<path d="M83.4235 13.7531C82.7549 14.4349 81.9241 14.7758 80.9302 14.7758C79.9362 14.7758 79.1055 14.4349 78.438 13.7531C77.7693 13.0714 77.4361 12.2366 77.4361 11.25C77.4361 10.2634 77.7693 9.42864 78.438 8.74689C79.1055 8.06514 79.9362 7.72314 80.9302 7.72314C81.9184 7.72314 82.7481 8.06627 83.419 8.75139C84.0899 9.43652 84.4254 10.269 84.4254 11.25C84.4254 12.2366 84.0911 13.0714 83.4235 13.7531ZM79.0828 13.1873C79.586 13.6935 80.2014 13.9455 80.9302 13.9455C81.6589 13.9455 82.2754 13.6924 82.7775 13.1873C83.2807 12.681 83.5335 12.0353 83.5335 11.25C83.5335 10.4648 83.2807 9.81902 82.7775 9.31277C82.2754 8.80652 81.6589 8.55452 80.9302 8.55452C80.2014 8.55452 79.586 8.80764 79.0828 9.31277C78.5808 9.81902 78.328 10.4648 78.328 11.25C78.328 12.0353 78.5808 12.681 79.0828 13.1873Z" stroke="white" stroke-width="0.2" stroke-miterlimit="10"/>
<path d="M85.6517 14.625V7.87503H86.7147L90.0195 13.1254H90.0569L90.0195 11.8249V7.87503H90.8933V14.625H89.981L86.5232 9.11928H86.4858L86.5232 10.4198V14.625H85.6517Z" stroke="white" stroke-width="0.2" stroke-miterlimit="10"/>
<g filter="url(#filter0_ii_416_1043)">
<path d="M11.8275 8.48032C11.4977 8.82682 11.3027 9.36457 11.3027 10.0609V34.9414C11.3027 35.6389 11.4977 36.1756 11.8275 36.5221L11.9113 36.6031L25.9522 22.6654V22.5012V22.3369L11.9113 8.39819L11.8275 8.48032Z" fill="url(#paint0_linear_416_1043)"/>
<path d="M30.6317 27.3128L25.9521 22.6654V22.5012V22.3369L30.6328 17.6907L30.7382 17.7503L36.2836 20.8778C37.8669 21.771 37.8669 23.2324 36.2836 24.1268L30.7382 27.2543L30.6317 27.3128Z" fill="url(#paint1_linear_416_1043)"/>
<g filter="url(#filter1_i_416_1043)">
<path d="M30.7382 27.2531L25.951 22.5011L11.8274 36.522C12.3487 37.071 13.2112 37.1385 14.1825 36.5917L30.7382 27.2531Z" fill="url(#paint2_linear_416_1043)"/>
</g>
<path d="M30.7382 17.7492L14.1825 8.41165C13.2112 7.86378 12.3487 7.9324 11.8274 8.4814L25.9521 22.5023L30.7382 17.7492Z" fill="url(#paint3_linear_416_1043)"/>
</g>
<defs>
<filter id="filter0_ii_416_1043" x="11.3027" y="8.03357" width="26.1682" height="28.9358" filterUnits="userSpaceOnUse" color-interpolation-filters="sRGB">
<feFlood flood-opacity="0" result="BackgroundImageFix"/>
<feBlend mode="normal" in="SourceGraphic" in2="BackgroundImageFix" result="shape"/>
<feColorMatrix in="SourceAlpha" type="matrix" values="0 0 0 0 0 0 0 0 0 0 0 0 0 0 0 0 0 0 127 0" result="hardAlpha"/>
<feOffset dy="-0.15"/>
<feComposite in2="hardAlpha" operator="arithmetic" k2="-1" k3="1"/>
<feColorMatrix type="matrix" values="0 0 0 0 0 0 0 0 0 0 0 0 0 0 0 0 0 0 0.12 0"/>
<feBlend mode="normal" in2="shape" result="effect1_innerShadow_416_1043"/>
<feColorMatrix in="SourceAlpha" type="matrix" values="0 0 0 0 0 0 0 0 0 0 0 0 0 0 0 0 0 0 127 0" result="hardAlpha"/>
<feOffset dy="0.15"/>
<feComposite in2="hardAlpha" operator="arithmetic" k2="-1" k3="1"/>
<feColorMatrix type="matrix" values="0 0 0 0 1 0 0 0 0 1 0 0 0 0 1 0 0 0 0.25 0"/>
<feBlend mode="normal" in2="effect1_innerShadow_416_1043" result="effect2_innerShadow_416_1043"/>
</filter>
<filter id="filter1_i_416_1043" x="11.8274" y="22.5011" width="18.9109" height="14.4683" filterUnits="userSpaceOnUse" color-interpolation-filters="sRGB">
<feFlood flood-opacity="0" result="BackgroundImageFix"/>
<feBlend mode="normal" in="SourceGraphic" in2="BackgroundImageFix" result="shape"/>
<feColorMatrix in="SourceAlpha" type="matrix" values="0 0 0 0 0 0 0 0 0 0 0 0 0 0 0 0 0 0 127 0" result="hardAlpha"/>
<feOffset dy="-0.15"/>
<feComposite in2="hardAlpha" operator="arithmetic" k2="-1" k3="1"/>
<feColorMatrix type="matrix" values="0 0 0 0 0 0 0 0 0 0 0 0 0 0 0 0 0 0 0.08 0"/>
<feBlend mode="normal" in2="shape" result="effect1_innerShadow_416_1043"/>
</filter>
<linearGradient id="paint0_linear_416_1043" x1="24.7076" y1="9.79769" x2="5.82834" y2="28.8168" gradientUnits="userSpaceOnUse">
<stop stop-color="#00A0FF"/>
<stop offset="0.0066" stop-color="#00A1FF"/>
<stop offset="0.2601" stop-color="#00BEFF"/>
<stop offset="0.5122" stop-color="#00D2FF"/>
<stop offset="0.7604" stop-color="#00DFFF"/>
<stop offset="1" stop-color="#00E3FF"/>
</linearGradient>
<linearGradient id="paint1_linear_416_1043" x1="38.3446" y1="22.5012" x2="10.9226" y2="22.5012" gradientUnits="userSpaceOnUse">
<stop stop-color="#FFE000"/>
<stop offset="0.4087" stop-color="#FFBD00"/>
<stop offset="0.7754" stop-color="#FFA500"/>
<stop offset="1" stop-color="#FF9C00"/>
</linearGradient>
<linearGradient id="paint2_linear_416_1043" x1="28.1384" y1="25.0817" x2="2.53583" y2="50.874" gradientUnits="userSpaceOnUse">
<stop stop-color="#FF3A44"/>
<stop offset="1" stop-color="#C31162"/>
</linearGradient>
<linearGradient id="paint3_linear_416_1043" x1="8.27031" y1="0.19893" x2="19.7026" y2="11.7159" gradientUnits="userSpaceOnUse">
<stop stop-color="#32A071"/>
<stop offset="0.0685" stop-color="#2DA771"/>
<stop offset="0.4762" stop-color="#15CF74"/>
<stop offset="0.8009" stop-color="#06E775"/>
<stop offset="1" stop-color="#00F076"/>
</linearGradient>
</defs>
</svg>
