<svg width="214" height="64" viewBox="0 0 214 64" fill="none" xmlns="http://www.w3.org/2000/svg">
<rect x="0.5" y="0.5" width="213" height="63" rx="12.5" fill="black"/>
<path d="M108.008 34.8018C104.28 34.8018 101.241 37.6642 101.241 41.6066C101.241 45.525 104.28 48.4114 108.008 48.4114C111.738 48.4114 114.777 45.525 114.777 41.6066C114.775 37.6642 111.737 34.8018 108.008 34.8018ZM108.008 45.733C105.965 45.733 104.204 44.0322 104.204 41.6082C104.204 39.1586 105.966 37.4834 108.008 37.4834C110.051 37.4834 111.813 39.1586 111.813 41.6082C111.813 44.0306 110.051 45.733 108.008 45.733ZM93.2437 34.8018C89.5154 34.8018 86.4766 37.6642 86.4766 41.6066C86.4766 45.525 89.5154 48.4114 93.2437 48.4114C96.9737 48.4114 100.012 45.525 100.012 41.6066C100.012 37.6642 96.9737 34.8018 93.2437 34.8018ZM93.2437 45.733C91.2004 45.733 89.4393 44.0322 89.4393 41.6082C89.4393 39.1586 91.202 37.4834 93.2437 37.4834C95.287 37.4834 97.0482 39.1586 97.0482 41.6082C97.0498 44.0306 95.287 45.733 93.2437 45.733ZM75.6831 36.8914V39.7778H82.5279C82.3234 41.4018 81.7876 42.5874 80.9696 43.4114C79.9741 44.4162 78.4159 45.525 75.6831 45.525C71.4696 45.525 68.1756 42.0962 68.1756 37.8434C68.1756 33.5906 71.4696 30.1618 75.6831 30.1618C77.9562 30.1618 79.6159 31.0642 80.8412 32.2242L82.8592 30.1874C81.1472 28.5378 78.8756 27.2754 75.6831 27.2754C69.9114 27.2754 65.0591 32.0178 65.0591 37.8434C65.0591 43.669 69.9114 48.4114 75.6831 48.4114C78.7979 48.4114 81.1488 47.3794 82.986 45.4466C84.8755 43.5394 85.4637 40.8578 85.4637 38.693C85.4637 38.0242 85.4129 37.405 85.3099 36.8898H75.6831V36.8914ZM147.505 39.133C146.943 37.613 145.231 34.8018 141.733 34.8018C138.26 34.8018 135.373 37.5602 135.373 41.6066C135.373 45.421 138.234 48.4114 142.064 48.4114C145.154 48.4114 146.942 46.5042 147.684 45.3954L145.385 43.8482C144.62 44.9826 143.572 45.7298 142.064 45.7298C140.558 45.7298 139.485 45.0338 138.796 43.6674L147.811 39.9042L147.505 39.133ZM138.311 41.4018C138.234 38.7714 140.328 37.4322 141.836 37.4322C143.011 37.4322 144.006 38.0258 144.339 38.8754L138.311 41.4018ZM130.982 48.0002H133.943V27.9986H130.982V48.0002ZM126.128 36.3234H126.027C125.363 35.5234 124.085 34.8018 122.478 34.8018C119.106 34.8018 116.017 37.7922 116.017 41.6338C116.017 45.4482 119.106 48.413 122.478 48.413C124.087 48.413 125.363 47.6914 126.027 46.8674H126.128V47.8466C126.128 50.4498 124.749 51.8418 122.528 51.8418C120.715 51.8418 119.591 50.5282 119.131 49.4194L116.552 50.5026C117.293 52.3058 119.258 54.5234 122.528 54.5234C126.002 54.5234 128.939 52.461 128.939 47.4338V35.2162H126.13V36.3234H126.128ZM122.733 45.733C120.69 45.733 118.979 44.005 118.979 41.6338C118.979 39.2354 120.69 37.4834 122.733 37.4834C124.749 37.4834 126.333 39.2354 126.333 41.6338C126.333 44.005 124.749 45.733 122.733 45.733ZM161.381 27.9986H154.294V48.0002H157.25V40.4226H161.38C164.658 40.4226 167.882 38.0274 167.882 34.2114C167.882 30.3954 164.66 27.9986 161.381 27.9986ZM161.457 37.6386H157.25V30.7826H161.457C163.669 30.7826 164.924 32.6306 164.924 34.2114C164.924 35.7602 163.669 37.6386 161.457 37.6386ZM179.738 34.7666C177.596 34.7666 175.379 35.7186 174.461 37.829L177.086 38.9346C177.647 37.829 178.693 37.4674 179.789 37.4674C181.318 37.4674 182.873 38.3938 182.899 40.0402V40.2466C182.363 39.9378 181.215 39.4754 179.814 39.4754C176.984 39.4754 174.102 41.045 174.102 43.9778C174.102 46.6546 176.423 48.3778 179.023 48.3778C181.011 48.3778 182.108 47.477 182.796 46.421H182.897V47.965H185.754V40.2962C185.755 36.7474 183.127 34.7666 179.738 34.7666ZM179.38 45.7282C178.413 45.7282 177.06 45.2386 177.06 44.029C177.06 42.485 178.744 41.893 180.197 41.893C181.496 41.893 182.109 42.1762 182.899 42.5618C182.669 44.4162 181.088 45.7282 179.38 45.7282ZM196.156 35.2034L192.765 43.8754H192.663L189.144 35.2034H185.958L191.235 47.3234L188.226 54.0658H191.311L199.445 35.2034H196.156ZM169.515 48.0002H172.471V27.9986H169.515V48.0002Z" fill="white"/>
<path d="M75.1664 16.3886C75.1664 17.7294 74.7733 18.7966 73.9854 19.5934C73.0914 20.5406 71.9247 21.0142 70.4917 21.0142C69.1189 21.0142 67.9506 20.5342 66.9916 19.5742C66.031 18.6126 65.5507 17.4222 65.5507 16.0014C65.5507 14.579 66.031 13.3886 66.9916 12.4286C67.9506 11.467 69.1189 10.987 70.4917 10.987C71.1733 10.987 71.8248 11.1214 72.443 11.3886C73.0629 11.6574 73.559 12.0142 73.9299 12.4606L73.0946 13.3054C72.4652 12.5454 71.5981 12.1662 70.4901 12.1662C69.4883 12.1662 68.6227 12.5214 67.892 13.2318C67.1612 13.9422 66.7966 14.8654 66.7966 15.9998C66.7966 17.1342 67.1612 18.0574 67.892 18.7678C68.6227 19.4782 69.4883 19.8334 70.4901 19.8334C71.5522 19.8334 72.4383 19.4766 73.1469 18.7614C73.6066 18.2958 73.8729 17.6478 73.9442 16.8174H70.4901V15.6638H75.0982C75.1458 15.915 75.1664 16.1566 75.1664 16.3886Z" fill="white"/>
<path d="M82.4742 12.3791H78.1435V15.4223H82.0494V16.5759H78.1435V19.6191H82.4742V20.7999H76.9213V11.1999H82.4742V12.3791Z" fill="white"/>
<path d="M87.6275 20.7999H86.4053V12.3791H83.7486V11.1999H90.2843V12.3791H87.6275V20.7999Z" fill="white"/>
<path d="M95.0128 20.7999V11.1999H96.235V20.7999H95.0128Z" fill="white"/>
<path d="M101.655 20.7999H100.433V12.3791H97.776V11.1999H104.312V12.3791H101.655V20.7999Z" fill="white"/>
<path d="M116.684 19.5599C115.749 20.5295 114.587 21.0143 113.196 21.0143C111.806 21.0143 110.644 20.5295 109.711 19.5599C108.775 18.5903 108.309 17.4031 108.309 15.9999C108.309 14.5967 108.775 13.4095 109.711 12.4399C110.644 11.4703 111.806 10.9839 113.196 10.9839C114.579 10.9839 115.739 11.4719 116.677 12.4463C117.616 13.4207 118.085 14.6047 118.085 15.9999C118.085 17.4031 117.617 18.5903 116.684 19.5599ZM110.613 18.7551C111.316 19.4751 112.177 19.8335 113.196 19.8335C114.216 19.8335 115.078 19.4735 115.78 18.7551C116.484 18.0351 116.838 17.1167 116.838 15.9999C116.838 14.8831 116.484 13.9647 115.78 13.2447C115.078 12.5247 114.216 12.1663 113.196 12.1663C112.177 12.1663 111.316 12.5263 110.613 13.2447C109.91 13.9647 109.557 14.8831 109.557 15.9999C109.557 17.1167 109.91 18.0351 110.613 18.7551Z" fill="white"/>
<path d="M119.8 20.7999V11.1999H121.287L125.91 18.6671H125.962L125.91 16.8175V11.1999H127.132V20.7999H125.856L121.019 12.9695H120.967L121.019 14.8191V20.7999H119.8Z" fill="white"/>
<path d="M75.1664 16.3886C75.1664 17.7294 74.7733 18.7966 73.9854 19.5934C73.0914 20.5406 71.9247 21.0142 70.4917 21.0142C69.1189 21.0142 67.9506 20.5342 66.9916 19.5742C66.031 18.6126 65.5507 17.4222 65.5507 16.0014C65.5507 14.579 66.031 13.3886 66.9916 12.4286C67.9506 11.467 69.1189 10.987 70.4917 10.987C71.1733 10.987 71.8248 11.1214 72.443 11.3886C73.0629 11.6574 73.559 12.0142 73.9299 12.4606L73.0946 13.3054C72.4652 12.5454 71.5981 12.1662 70.4901 12.1662C69.4883 12.1662 68.6227 12.5214 67.892 13.2318C67.1612 13.9422 66.7966 14.8654 66.7966 15.9998C66.7966 17.1342 67.1612 18.0574 67.892 18.7678C68.6227 19.4782 69.4883 19.8334 70.4901 19.8334C71.5522 19.8334 72.4383 19.4766 73.1469 18.7614C73.6066 18.2958 73.8729 17.6478 73.9442 16.8174H70.4901V15.6638H75.0982C75.1458 15.915 75.1664 16.1566 75.1664 16.3886Z" stroke="white" stroke-width="0.2" stroke-miterlimit="10"/>
<path d="M82.4742 12.3791H78.1435V15.4223H82.0494V16.5759H78.1435V19.6191H82.4742V20.7999H76.9213V11.1999H82.4742V12.3791Z" stroke="white" stroke-width="0.2" stroke-miterlimit="10"/>
<path d="M87.6275 20.7999H86.4053V12.3791H83.7486V11.1999H90.2843V12.3791H87.6275V20.7999Z" stroke="white" stroke-width="0.2" stroke-miterlimit="10"/>
<path d="M95.0128 20.7999V11.1999H96.235V20.7999H95.0128Z" stroke="white" stroke-width="0.2" stroke-miterlimit="10"/>
<path d="M101.655 20.7999H100.433V12.3791H97.776V11.1999H104.312V12.3791H101.655V20.7999Z" stroke="white" stroke-width="0.2" stroke-miterlimit="10"/>
<path d="M116.684 19.5599C115.749 20.5295 114.587 21.0143 113.196 21.0143C111.806 21.0143 110.644 20.5295 109.711 19.5599C108.775 18.5903 108.309 17.4031 108.309 15.9999C108.309 14.5967 108.775 13.4095 109.711 12.4399C110.644 11.4703 111.806 10.9839 113.196 10.9839C114.579 10.9839 115.739 11.4719 116.677 12.4463C117.616 13.4207 118.085 14.6047 118.085 15.9999C118.085 17.4031 117.617 18.5903 116.684 19.5599ZM110.613 18.7551C111.316 19.4751 112.177 19.8335 113.196 19.8335C114.216 19.8335 115.078 19.4735 115.78 18.7551C116.484 18.0351 116.838 17.1167 116.838 15.9999C116.838 14.8831 116.484 13.9647 115.78 13.2447C115.078 12.5247 114.216 12.1663 113.196 12.1663C112.177 12.1663 111.316 12.5263 110.613 13.2447C109.91 13.9647 109.557 14.8831 109.557 15.9999C109.557 17.1167 109.91 18.0351 110.613 18.7551Z" stroke="white" stroke-width="0.2" stroke-miterlimit="10"/>
<path d="M119.8 20.7999V11.1999H121.287L125.91 18.6671H125.962L125.91 16.8175V11.1999H127.132V20.7999H125.856L121.019 12.9695H120.967L121.019 14.8191V20.7999H119.8Z" stroke="white" stroke-width="0.2" stroke-miterlimit="10"/>
<g filter="url(#filter0_ii_20_218)">
<path d="M16.543 12.0609C16.0817 12.5537 15.8091 13.3185 15.8091 14.3089V49.6945C15.8091 50.6865 16.0817 51.4497 16.543 51.9425L16.6603 52.0577L36.2992 32.2353V32.0017V31.7681L16.6603 11.9441L16.543 12.0609Z" fill="url(#paint0_linear_20_218)"/>
<path d="M42.8444 38.845L36.2992 32.2354V32.0018V31.7682L42.846 25.1602L42.9934 25.245L50.7497 29.693C52.9642 30.9634 52.9642 33.0418 50.7497 34.3138L42.9934 38.7618L42.8444 38.845Z" fill="url(#paint1_linear_20_218)"/>
<g filter="url(#filter1_i_20_218)">
<path d="M42.9934 38.7601L36.2976 32.0017L16.543 51.9425C17.2722 52.7233 18.4785 52.8193 19.837 52.0417L42.9934 38.7601Z" fill="url(#paint2_linear_20_218)"/>
</g>
<path d="M42.9934 25.2433L19.837 11.9633C18.4785 11.1841 17.2722 11.2817 16.543 12.0625L36.2992 32.0033L42.9934 25.2433Z" fill="url(#paint3_linear_20_218)"/>
</g>
<rect x="0.5" y="0.5" width="213" height="63" rx="12.5" stroke="#A6A6A6"/>
<defs>
<filter id="filter0_ii_20_218" x="15.8091" y="11.4255" width="36.6016" height="41.1533" filterUnits="userSpaceOnUse" color-interpolation-filters="sRGB">
<feFlood flood-opacity="0" result="BackgroundImageFix"/>
<feBlend mode="normal" in="SourceGraphic" in2="BackgroundImageFix" result="shape"/>
<feColorMatrix in="SourceAlpha" type="matrix" values="0 0 0 0 0 0 0 0 0 0 0 0 0 0 0 0 0 0 127 0" result="hardAlpha"/>
<feOffset dy="-0.15"/>
<feComposite in2="hardAlpha" operator="arithmetic" k2="-1" k3="1"/>
<feColorMatrix type="matrix" values="0 0 0 0 0 0 0 0 0 0 0 0 0 0 0 0 0 0 0.12 0"/>
<feBlend mode="normal" in2="shape" result="effect1_innerShadow_20_218"/>
<feColorMatrix in="SourceAlpha" type="matrix" values="0 0 0 0 0 0 0 0 0 0 0 0 0 0 0 0 0 0 127 0" result="hardAlpha"/>
<feOffset dy="0.15"/>
<feComposite in2="hardAlpha" operator="arithmetic" k2="-1" k3="1"/>
<feColorMatrix type="matrix" values="0 0 0 0 1 0 0 0 0 1 0 0 0 0 1 0 0 0 0.25 0"/>
<feBlend mode="normal" in2="effect1_innerShadow_20_218" result="effect2_innerShadow_20_218"/>
</filter>
<filter id="filter1_i_20_218" x="16.543" y="32.0017" width="26.4504" height="20.5771" filterUnits="userSpaceOnUse" color-interpolation-filters="sRGB">
<feFlood flood-opacity="0" result="BackgroundImageFix"/>
<feBlend mode="normal" in="SourceGraphic" in2="BackgroundImageFix" result="shape"/>
<feColorMatrix in="SourceAlpha" type="matrix" values="0 0 0 0 0 0 0 0 0 0 0 0 0 0 0 0 0 0 127 0" result="hardAlpha"/>
<feOffset dy="-0.15"/>
<feComposite in2="hardAlpha" operator="arithmetic" k2="-1" k3="1"/>
<feColorMatrix type="matrix" values="0 0 0 0 0 0 0 0 0 0 0 0 0 0 0 0 0 0 0.08 0"/>
<feBlend mode="normal" in2="shape" result="effect1_innerShadow_20_218"/>
</filter>
<linearGradient id="paint0_linear_20_218" x1="34.5583" y1="13.9345" x2="7.7083" y2="40.5359" gradientUnits="userSpaceOnUse">
<stop stop-color="#00A0FF"/>
<stop offset="0.0066" stop-color="#00A1FF"/>
<stop offset="0.2601" stop-color="#00BEFF"/>
<stop offset="0.5122" stop-color="#00D2FF"/>
<stop offset="0.7604" stop-color="#00DFFF"/>
<stop offset="1" stop-color="#00E3FF"/>
</linearGradient>
<linearGradient id="paint1_linear_20_218" x1="53.6324" y1="32.0018" x2="15.2774" y2="32.0018" gradientUnits="userSpaceOnUse">
<stop stop-color="#FFE000"/>
<stop offset="0.4087" stop-color="#FFBD00"/>
<stop offset="0.7754" stop-color="#FFA500"/>
<stop offset="1" stop-color="#FF9C00"/>
</linearGradient>
<linearGradient id="paint2_linear_20_218" x1="39.3572" y1="35.6719" x2="2.94515" y2="71.7468" gradientUnits="userSpaceOnUse">
<stop stop-color="#FF3A44"/>
<stop offset="1" stop-color="#C31162"/>
</linearGradient>
<linearGradient id="paint3_linear_20_218" x1="11.5678" y1="0.282939" x2="27.8267" y2="16.3914" gradientUnits="userSpaceOnUse">
<stop stop-color="#32A071"/>
<stop offset="0.0685" stop-color="#2DA771"/>
<stop offset="0.4762" stop-color="#15CF74"/>
<stop offset="0.8009" stop-color="#06E775"/>
<stop offset="1" stop-color="#00F076"/>
</linearGradient>
</defs>
</svg>
