<svg width="48" height="48" viewBox="0 0 48 48" fill="none" xmlns="http://www.w3.org/2000/svg">
<path fill-rule="evenodd" clip-rule="evenodd" d="M12.5 5C12.5 4.17157 13.1716 3.5 14 3.5H43C43.8284 3.5 44.5 4.17157 44.5 5V43C44.5 43.8284 43.8284 44.5 43 44.5H23V41.5H41.5V6.5H15.5V15H12.5V5Z" fill="#1C1B1F"/>
<path fill-rule="evenodd" clip-rule="evenodd" d="M3.5 15C3.5 14.1716 4.17157 13.5 5 13.5H23C23.8284 13.5 24.5 14.1716 24.5 15V43C24.5 43.8284 23.8284 44.5 23 44.5H5C4.17157 44.5 3.5 43.8284 3.5 43V15ZM6.5 16.5V41.5H21.5V16.5H6.5Z" fill="#1C1B1F"/>
<path fill-rule="evenodd" clip-rule="evenodd" d="M11.5 37C11.5 36.1716 12.1716 35.5 13 35.5H15C15.8284 35.5 16.5 36.1716 16.5 37C16.5 37.8284 15.8284 38.5 15 38.5H13C12.1716 38.5 11.5 37.8284 11.5 37Z" fill="#1C1B1F"/>
<path fill-rule="evenodd" clip-rule="evenodd" d="M26.5 37C26.5 36.1716 27.1716 35.5 28 35.5H30C30.8284 35.5 31.5 36.1716 31.5 37C31.5 37.8284 30.8284 38.5 30 38.5H28C27.1716 38.5 26.5 37.8284 26.5 37Z" fill="#1C1B1F"/>
</svg>
