<svg width="48" height="48" viewBox="0 0 48 48" fill="none" xmlns="http://www.w3.org/2000/svg">
<path fill-rule="evenodd" clip-rule="evenodd" d="M33.5 32.5C32.3954 32.5 31.5 33.3954 31.5 34.5C31.5 35.6046 32.3954 36.5 33.5 36.5H37.4C38.5598 36.5 39.5 35.5598 39.5 34.4V32.5H33.5ZM28.5 34.5C28.5 31.7386 30.7386 29.5 33.5 29.5H41C41.8284 29.5 42.5 30.1716 42.5 31V34.4C42.5 37.2166 40.2166 39.5 37.4 39.5H33.5C30.7386 39.5 28.5 37.2614 28.5 34.5Z" fill="#1C1B1F"/>
<path fill-rule="evenodd" clip-rule="evenodd" d="M9.5 36.5C8.39543 36.5 7.5 37.3954 7.5 38.5C7.5 39.6046 8.39543 40.5 9.5 40.5H12.4C13.5598 40.5 14.5 39.5598 14.5 38.4V36.5H9.5ZM4.5 38.5C4.5 35.7386 6.73857 33.5 9.5 33.5H16C16.8284 33.5 17.5 34.1716 17.5 35V38.4C17.5 41.2166 15.2166 43.5 12.4 43.5H9.5C6.73857 43.5 4.5 41.2614 4.5 38.5Z" fill="#1C1B1F"/>
<path fill-rule="evenodd" clip-rule="evenodd" d="M42.4597 11.7794C42.6505 12.5856 42.1517 13.3938 41.3456 13.5847L16.3456 19.5037C15.5394 19.6945 14.7312 19.1957 14.5404 18.3896C14.3495 17.5835 14.8483 16.7752 15.6544 16.5844L40.6544 10.6654C41.4606 10.4745 42.2688 10.9733 42.4597 11.7794Z" fill="#1C1B1F"/>
<path fill-rule="evenodd" clip-rule="evenodd" d="M41.9287 2.82207C42.2895 3.10651 42.5 3.54059 42.5 4.00001V33.6924C42.5 34.5208 41.8284 35.1924 41 35.1924C40.1716 35.1924 39.5 34.5208 39.5 33.6924V5.90261L17.5 11.1826V38C17.5 38.8284 16.8284 39.5 16 39.5C15.1716 39.5 14.5 38.8284 14.5 38V10C14.5 9.30643 14.9755 8.7033 15.6499 8.54143L40.6499 2.54143C41.0967 2.43422 41.5679 2.53764 41.9287 2.82207Z" fill="#1C1B1F"/>
</svg>
