<svg width="48" height="48" viewBox="0 0 48 48" fill="none" xmlns="http://www.w3.org/2000/svg">
<path fill-rule="evenodd" clip-rule="evenodd" d="M11.398 18.4563C11.697 19.2252 11.3189 20.0904 10.5534 20.3942L10.5367 20.4012C10.5164 20.41 10.4791 20.4266 10.4268 20.4517C10.3222 20.5019 10.1588 20.5858 9.9539 20.7086C9.54317 20.9547 8.97274 21.3526 8.37519 21.9425C7.19491 23.1076 5.87176 25.0551 5.48885 28.1823C5.38816 29.0046 4.63994 29.5895 3.81766 29.4889C2.99537 29.3882 2.4104 28.64 2.51109 27.8177C2.98532 23.9448 4.66217 21.3923 6.2676 19.8075C7.06292 19.0224 7.83177 18.4828 8.41211 18.1351C8.70275 17.961 8.94783 17.834 9.12779 17.7475C9.21784 17.7042 9.29181 17.671 9.3473 17.6471C9.37505 17.6351 9.39821 17.6254 9.41647 17.6179L9.44016 17.6083L9.44919 17.6048L9.45298 17.6033L9.4547 17.6026C9.45551 17.6023 9.4563 17.602 9.99997 19L9.4563 17.602C10.2284 17.3017 11.0977 17.6842 11.398 18.4563Z" fill="black"/>
<path fill-rule="evenodd" clip-rule="evenodd" d="M36.602 18.4563C36.9022 17.6842 37.7715 17.3017 38.5436 17.602L38 19C38.5436 17.602 38.5444 17.6023 38.5452 17.6026L38.547 17.6033L38.5508 17.6048L38.5598 17.6083L38.5835 17.6179C38.6017 17.6254 38.6249 17.6351 38.6526 17.6471C38.7081 17.671 38.7821 17.7042 38.8722 17.7475C39.0521 17.834 39.2972 17.961 39.5878 18.1351C40.1682 18.4828 40.937 19.0224 41.7324 19.8075C43.3378 21.3923 45.0147 23.9448 45.4889 27.8177C45.5895 28.64 45.0046 29.3882 44.1823 29.4889C43.36 29.5895 42.6118 29.0046 42.5111 28.1823C42.1282 25.0551 40.8051 23.1076 39.6248 21.9425C39.0272 21.3526 38.4568 20.9547 38.0461 20.7086C37.8412 20.5858 37.6778 20.5019 37.5731 20.4517C37.5209 20.4266 37.4835 20.41 37.4632 20.4012L37.4466 20.3942C36.681 20.0904 36.303 19.2252 36.602 18.4563Z" fill="black"/>
<path fill-rule="evenodd" clip-rule="evenodd" d="M16.5424 18.6457C16.7381 17.8407 17.5493 17.3468 18.3543 17.5424L18 19C18.3543 17.5424 18.3551 17.5426 18.3559 17.5428L18.3576 17.5432L18.3614 17.5442L18.3703 17.5464L18.3934 17.5523C18.4112 17.557 18.4335 17.563 18.4603 17.5705C18.5137 17.5855 18.5847 17.6066 18.671 17.6346C18.8435 17.6905 19.0786 17.7745 19.3587 17.8943C19.9174 18.1333 20.6652 18.519 21.4547 19.116C23.0528 20.3245 24.7858 22.3755 25.4692 25.6977C25.6361 26.5092 25.1137 27.3023 24.3022 27.4692C23.4908 27.6361 22.6977 27.1137 22.5307 26.3022C22.0142 23.7911 20.7472 22.3422 19.6453 21.5089C19.0848 21.0851 18.5576 20.8146 18.1788 20.6525C17.9901 20.5718 17.8408 20.5191 17.7461 20.4884C17.6989 20.4731 17.6656 20.4634 17.6481 20.4585L17.6349 20.4549C16.8363 20.2546 16.3476 19.4471 16.5424 18.6457Z" fill="black"/>
<path fill-rule="evenodd" clip-rule="evenodd" d="M31.4576 18.6457C31.6523 19.4471 31.1637 20.2546 30.3651 20.4549L30.3519 20.4585C30.3344 20.4634 30.3011 20.4731 30.2538 20.4884C30.1592 20.5191 30.0099 20.5718 29.8212 20.6525C29.4424 20.8146 28.9152 21.0851 28.3547 21.5089C27.2528 22.3422 25.9858 23.7911 25.4692 26.3022C25.3023 27.1137 24.5092 27.6361 23.6977 27.4692C22.8863 27.3023 22.3638 26.5092 22.5308 25.6977C23.2142 22.3755 24.9472 20.3245 26.5453 19.116C27.3348 18.519 28.0826 18.1333 28.6413 17.8943C28.9214 17.7745 29.1564 17.6905 29.329 17.6346C29.4153 17.6066 29.4863 17.5855 29.5397 17.5705C29.5664 17.563 29.5888 17.557 29.6065 17.5523L29.6297 17.5464L29.6386 17.5442L29.6424 17.5432L29.6441 17.5428C29.6449 17.5426 29.6457 17.5424 30 19L29.6457 17.5424C30.4507 17.3468 31.2619 17.8407 31.4576 18.6457Z" fill="black"/>
<path fill-rule="evenodd" clip-rule="evenodd" d="M20.2769 35.4742C20.2769 35.4742 20.2769 35.4742 20.2768 35.4742C20.2755 35.4745 20.2735 35.4749 20.2707 35.4756C20.2584 35.4782 20.2321 35.4842 20.1933 35.4943C20.1157 35.5144 19.9889 35.5509 19.8251 35.6101C19.4965 35.7287 19.0255 35.9362 18.5028 36.2822C17.474 36.963 16.2005 38.2067 15.4189 40.4865C15.1502 41.2701 14.2971 41.6876 13.5135 41.4189C12.7298 41.1503 12.3124 40.2972 12.5811 39.5135C13.5994 36.5433 15.326 34.787 16.8472 33.7804C17.5995 33.2825 18.291 32.9744 18.8061 32.7884C19.0642 32.6952 19.2796 32.6321 19.4387 32.5907C19.5183 32.57 19.584 32.5548 19.6341 32.5439C19.6591 32.5384 19.6803 32.5341 19.6974 32.5307L19.72 32.5264L19.7289 32.5247L19.7328 32.524L19.7346 32.5237C19.7355 32.5235 19.7363 32.5234 20 34L19.7363 32.5234C20.5518 32.3777 21.331 32.9208 21.4766 33.7363C21.6215 34.5474 21.085 35.3226 20.2769 35.4742Z" fill="black"/>
<path fill-rule="evenodd" clip-rule="evenodd" d="M26.5234 33.7363C26.669 32.9208 27.4482 32.3777 28.2637 32.5234L28 34C28.2637 32.5234 28.2645 32.5235 28.2654 32.5237L28.2672 32.524L28.2711 32.5247L28.28 32.5264L28.3026 32.5307C28.3197 32.5341 28.3409 32.5384 28.3659 32.5439C28.416 32.5548 28.4817 32.57 28.5613 32.5907C28.7204 32.6321 28.9358 32.6952 29.1939 32.7884C29.709 32.9744 30.4005 33.2825 31.1528 33.7804C32.674 34.787 34.4006 36.5433 35.4189 39.5135C35.6876 40.2972 35.2702 41.1503 34.4865 41.4189C33.7029 41.6876 32.8498 41.2701 32.5811 40.4865C31.7995 38.2067 30.526 36.963 29.4972 36.2822C28.9745 35.9362 28.5035 35.7287 28.1749 35.6101C28.0111 35.5509 27.8843 35.5144 27.8067 35.4943C27.7679 35.4842 27.7416 35.4782 27.7293 35.4756M27.7231 35.4742C27.7231 35.4742 27.7231 35.4742 27.7232 35.4742Z" fill="black"/>
<path fill-rule="evenodd" clip-rule="evenodd" d="M24 27.5C22.067 27.5 20.5 29.067 20.5 31C20.5 32.933 22.067 34.5 24 34.5C25.933 34.5 27.5 32.933 27.5 31C27.5 29.067 25.933 27.5 24 27.5ZM17.5 31C17.5 27.4101 20.4101 24.5 24 24.5C27.5899 24.5 30.5 27.4101 30.5 31C30.5 34.5899 27.5899 37.5 24 37.5C20.4101 37.5 17.5 34.5899 17.5 31Z" fill="black"/>
<path fill-rule="evenodd" clip-rule="evenodd" d="M34 9.5C31.5147 9.5 29.5 11.5147 29.5 14C29.5 16.4853 31.5147 18.5 34 18.5C36.4853 18.5 38.5 16.4853 38.5 14C38.5 11.5147 36.4853 9.5 34 9.5ZM26.5 14C26.5 9.85786 29.8579 6.5 34 6.5C38.1421 6.5 41.5 9.85786 41.5 14C41.5 18.1421 38.1421 21.5 34 21.5C29.8579 21.5 26.5 18.1421 26.5 14Z" fill="black"/>
<path fill-rule="evenodd" clip-rule="evenodd" d="M14 9.5C11.5147 9.5 9.5 11.5147 9.5 14C9.5 16.4853 11.5147 18.5 14 18.5C16.4853 18.5 18.5 16.4853 18.5 14C18.5 11.5147 16.4853 9.5 14 9.5ZM6.5 14C6.5 9.85786 9.85786 6.5 14 6.5C18.1421 6.5 21.5 9.85786 21.5 14C21.5 18.1421 18.1421 21.5 14 21.5C9.85786 21.5 6.5 18.1421 6.5 14Z" fill="black"/>
</svg>
