<svg width="48" height="48" viewBox="0 0 48 48" fill="none" xmlns="http://www.w3.org/2000/svg">
<path d="M24 5.5C30.9036 5.5 36.5 11.0964 36.5 18V36.5H11.5V18C11.5 11.0964 17.0964 5.5 24 5.5ZM39.5 36.5V18C39.5 9.43957 32.5604 2.5 24 2.5C15.4396 2.5 8.5 9.43957 8.5 18V36.5H4C3.17157 36.5 2.5 37.1716 2.5 38C2.5 38.8284 3.17157 39.5 4 39.5H44C44.8284 39.5 45.5 38.8284 45.5 38C45.5 37.1716 44.8284 36.5 44 36.5H39.5Z" fill="black"/>
<path d="M17.5 38C17.5 37.1716 18.1716 36.5 19 36.5H29C29.8284 36.5 30.5 37.1716 30.5 38V39C30.5 42.5898 27.5898 45.5 24 45.5C20.4102 45.5 17.5 42.5898 17.5 39V38ZM20.5354 39.5C20.7781 41.1961 22.2368 42.5 24 42.5C25.7632 42.5 27.2219 41.1961 27.4646 39.5H20.5354Z" fill="black"/>
</svg>
