<svg width="48" height="48" viewBox="0 0 48 48" fill="none" xmlns="http://www.w3.org/2000/svg">
<path fill-rule="evenodd" clip-rule="evenodd" d="M11.5 10C11.5 9.17157 12.1716 8.5 13 8.5H41C41.8284 8.5 42.5 9.17157 42.5 10V44C42.5 44.8284 41.8284 45.5 41 45.5H13C12.1716 45.5 11.5 44.8284 11.5 44V10ZM14.5 11.5V42.5H39.5V11.5H14.5Z" fill="black"/>
<path fill-rule="evenodd" clip-rule="evenodd" d="M5.5 5C5.5 3.61929 6.61929 2.5 8 2.5H35C35.8284 2.5 36.5 3.17157 36.5 4V10C36.5 10.8284 35.8284 11.5 35 11.5C34.1716 11.5 33.5 10.8284 33.5 10V5.5H8.5V36.5H13C13.8284 36.5 14.5 37.1716 14.5 38C14.5 38.8284 13.8284 39.5 13 39.5H7C6.17157 39.5 5.5 38.8284 5.5 38V5Z" fill="black"/>
<path fill-rule="evenodd" clip-rule="evenodd" d="M19.5 22C19.5 21.1716 20.1716 20.5 21 20.5H33C33.8284 20.5 34.5 21.1716 34.5 22C34.5 22.8284 33.8284 23.5 33 23.5H21C20.1716 23.5 19.5 22.8284 19.5 22Z" fill="black"/>
<path fill-rule="evenodd" clip-rule="evenodd" d="M19.5 30C19.5 29.1716 20.1716 28.5 21 28.5H33C33.8284 28.5 34.5 29.1716 34.5 30C34.5 30.8284 33.8284 31.5 33 31.5H21C20.1716 31.5 19.5 30.8284 19.5 30Z" fill="black"/>
</svg>
