<svg width="48" height="48" viewBox="0 0 48 48" fill="none" xmlns="http://www.w3.org/2000/svg">
<path fill-rule="evenodd" clip-rule="evenodd" d="M18.2519 3.27738C18.9387 3.08727 19.6644 3.40658 19.9883 4.04135C20.7344 5.50382 22.2522 6.50001 24 6.50001C25.7478 6.50001 27.2656 5.50382 28.0117 4.04135C28.3356 3.40658 29.0613 3.08727 29.7481 3.27738C33.1169 4.20994 36.1518 5.9408 38.6368 8.25149C39.1221 8.70274 39.2538 9.41896 38.9608 10.0133C38.6662 10.6107 38.5 11.2838 38.5 12C38.5 14.4853 40.5147 16.5 43 16.5L43.0628 16.4995C43.7259 16.4901 44.3165 16.9172 44.5153 17.5499C45.1554 19.5879 45.5 21.7551 45.5 24C45.5 25.4816 45.3499 26.9298 45.0636 28.3296C44.9096 29.0823 44.2119 29.5969 43.4473 29.5218C43.3007 29.5074 43.1516 29.5 43 29.5C40.5147 29.5 38.5 31.5147 38.5 34C38.5 35.1062 38.8972 36.1158 39.5586 36.8996C40.054 37.4868 40.0257 38.3534 39.4929 38.907C36.9554 41.5438 33.7491 43.5356 30.1442 44.6088C29.3615 44.8419 28.5361 44.4059 28.2874 43.6279C27.7069 41.8119 26.0047 40.5 24 40.5C21.9953 40.5 20.2931 41.8119 19.7126 43.6279C19.4639 44.4059 18.6385 44.8419 17.8558 44.6088C14.2509 43.5356 11.0446 41.5438 8.50707 38.907C7.97431 38.3534 7.94598 37.4868 8.44143 36.8996C9.10278 36.1158 9.5 35.1062 9.5 34C9.5 31.5147 7.48528 29.5 5 29.5C4.84846 29.5 4.69926 29.5074 4.55267 29.5218C3.78811 29.5969 3.09037 29.0823 2.93642 28.3296C2.6501 26.9298 2.5 25.4816 2.5 24C2.5 21.7552 2.84455 19.588 3.48473 17.5499C3.68347 16.9172 4.27409 16.4901 4.9372 16.4995L5 16.5C7.48528 16.5 9.5 14.4853 9.5 12C9.5 11.2838 9.33378 10.6107 9.03924 10.0133C8.74619 9.41896 8.87788 8.70274 9.36318 8.25149C11.8482 5.9408 14.8831 4.20994 18.2519 3.27738ZM12.1655 9.77982C12.383 10.4825 12.5 11.2285 12.5 12C12.5 15.7789 9.70522 18.9051 6.06985 19.4243C5.69795 20.8864 5.5 22.4191 5.5 24C5.5 24.8588 5.55841 25.7032 5.67133 26.5296C9.49895 26.8692 12.5 30.0841 12.5 34C12.5 35.3339 12.1508 36.5882 11.5394 37.6744C13.2529 39.2368 15.26 40.4807 17.4672 41.314C18.7541 39.0379 21.1961 37.5 24 37.5C26.8039 37.5 29.2459 39.0379 30.5328 41.314C32.74 40.4807 34.7471 39.2368 36.4606 37.6744C35.8492 36.5882 35.5 35.3339 35.5 34C35.5 30.0841 38.5011 26.8692 42.3287 26.5296C42.4416 25.7032 42.5 24.8587 42.5 24C42.5 22.4191 42.302 20.8864 41.9301 19.4243C38.2948 18.905 35.5 15.7789 35.5 12C35.5 11.2285 35.617 10.4825 35.8345 9.77982C34.1235 8.3542 32.1524 7.23228 30.0036 6.4955C28.6368 8.31793 26.4573 9.50001 24 9.50001C21.5427 9.50001 19.3632 8.31793 17.9964 6.4955C15.8476 7.23228 13.8765 8.35419 12.1655 9.77982Z" fill="black"/>
<path fill-rule="evenodd" clip-rule="evenodd" d="M15.5 24C15.5 19.3056 19.3056 15.5 24 15.5C28.6944 15.5 32.5 19.3056 32.5 24C32.5 28.6944 28.6944 32.5 24 32.5C19.3056 32.5 15.5 28.6944 15.5 24ZM24 18.5C20.9624 18.5 18.5 20.9624 18.5 24C18.5 27.0376 20.9624 29.5 24 29.5C27.0376 29.5 29.5 27.0376 29.5 24C29.5 20.9624 27.0376 18.5 24 18.5Z" fill="black"/>
</svg>
