<svg width="34" height="34" viewBox="0 0 34 34" fill="none" xmlns="http://www.w3.org/2000/svg">
<path fill-rule="evenodd" clip-rule="evenodd" d="M9.24414 4.18607C9.24414 3.62736 9.69706 3.17444 10.2558 3.17444H29.8139C30.3726 3.17444 30.8255 3.62736 30.8255 4.18607V29.814C30.8255 30.3727 30.3726 30.8256 29.8139 30.8256H16.3255V28.8023H28.8023V5.19769H11.2674V10.9303H9.24414V4.18607Z" fill="#1C1B1F"/>
<path fill-rule="evenodd" clip-rule="evenodd" d="M3.17432 10.9302C3.17432 10.3715 3.62724 9.91861 4.18594 9.91861H16.3255C16.8842 9.91861 17.3371 10.3715 17.3371 10.9302V29.814C17.3371 30.3727 16.8842 30.8256 16.3255 30.8256H4.18594C3.62724 30.8256 3.17432 30.3727 3.17432 29.814V10.9302ZM5.19757 11.9419V28.8023H15.3139V11.9419H5.19757Z" fill="#1C1B1F"/>
<path fill-rule="evenodd" clip-rule="evenodd" d="M8.56982 25.7675C8.56982 25.2088 9.02275 24.7558 9.58145 24.7558H10.9303C11.489 24.7558 11.9419 25.2088 11.9419 25.7675C11.9419 26.3262 11.489 26.7791 10.9303 26.7791H9.58145C9.02275 26.7791 8.56982 26.3262 8.56982 25.7675Z" fill="#1C1B1F"/>
<path fill-rule="evenodd" clip-rule="evenodd" d="M18.686 25.7675C18.686 25.2088 19.139 24.7558 19.6977 24.7558H21.0465C21.6052 24.7558 22.0581 25.2088 22.0581 25.7675C22.0581 26.3262 21.6052 26.7791 21.0465 26.7791H19.6977C19.139 26.7791 18.686 26.3262 18.686 25.7675Z" fill="#1C1B1F"/>
</svg>
