<svg width="34" height="34" viewBox="0 0 34 34" fill="none" xmlns="http://www.w3.org/2000/svg">
<path fill-rule="evenodd" clip-rule="evenodd" d="M8.56982 7.55814C8.56982 6.99943 9.02275 6.54651 9.58145 6.54651H28.4652C29.0239 6.54651 29.4768 6.99943 29.4768 7.55814V30.4884C29.4768 31.0471 29.0239 31.5 28.4652 31.5H9.58145C9.02275 31.5 8.56982 31.0471 8.56982 30.4884V7.55814ZM10.5931 8.56977V29.4767H27.4535V8.56977H10.5931Z" fill="black"/>
<path fill-rule="evenodd" clip-rule="evenodd" d="M4.52319 4.18605C4.52319 3.25487 5.27807 2.5 6.20924 2.5H24.4185C24.9772 2.5 25.4302 2.95292 25.4302 3.51163V7.55814C25.4302 8.11685 24.9772 8.56977 24.4185 8.56977C23.8598 8.56977 23.4069 8.11685 23.4069 7.55814V4.52326H6.54645V25.4302H9.58133C10.14 25.4302 10.593 25.8832 10.593 26.4419C10.593 27.0006 10.14 27.4535 9.58133 27.4535H5.53482C4.97611 27.4535 4.52319 27.0006 4.52319 26.4419V4.18605Z" fill="black"/>
<path fill-rule="evenodd" clip-rule="evenodd" d="M13.9651 15.6512C13.9651 15.0925 14.418 14.6395 14.9767 14.6395H23.0697C23.6284 14.6395 24.0814 15.0925 24.0814 15.6512C24.0814 16.2099 23.6284 16.6628 23.0697 16.6628H14.9767C14.418 16.6628 13.9651 16.2099 13.9651 15.6512Z" fill="black"/>
<path fill-rule="evenodd" clip-rule="evenodd" d="M13.9651 21.0465C13.9651 20.4878 14.418 20.0349 14.9767 20.0349H23.0697C23.6284 20.0349 24.0814 20.4878 24.0814 21.0465C24.0814 21.6052 23.6284 22.0581 23.0697 22.0581H14.9767C14.418 22.0581 13.9651 21.6052 13.9651 21.0465Z" fill="black"/>
</svg>
