<svg width="34" height="34" viewBox="0 0 34 34" fill="none" xmlns="http://www.w3.org/2000/svg">
<path fill-rule="evenodd" clip-rule="evenodd" d="M8.50108 13.2612C8.70273 13.7798 8.44779 14.3633 7.93147 14.5682L7.92023 14.5729C7.90656 14.5788 7.88137 14.59 7.84613 14.6069C7.77556 14.6408 7.66536 14.6974 7.52717 14.7802C7.25017 14.9462 6.86546 15.2145 6.46246 15.6124C5.66646 16.3982 4.7741 17.7116 4.51586 19.8206C4.44795 20.3752 3.94334 20.7697 3.38878 20.7018C2.83421 20.6339 2.4397 20.1293 2.5076 19.5747C2.82743 16.9628 3.95833 15.2414 5.04106 14.1725C5.57744 13.643 6.09597 13.2791 6.48736 13.0446C6.68337 12.9272 6.84866 12.8415 6.97003 12.7832C7.03076 12.754 7.08065 12.7316 7.11807 12.7155C7.13679 12.7074 7.1524 12.7009 7.16472 12.6958L7.1807 12.6893L7.18678 12.6869L7.18935 12.6859L7.1905 12.6855C7.19105 12.6853 7.19158 12.6851 7.55824 13.6279L7.19158 12.6851C7.7123 12.4826 8.29858 12.7405 8.50108 13.2612Z" fill="black"/>
<path fill-rule="evenodd" clip-rule="evenodd" d="M25.499 13.2612C25.7015 12.7405 26.2878 12.4826 26.8085 12.6851L26.4418 13.6279C26.8085 12.6851 26.809 12.6853 26.8096 12.6855L26.8107 12.6859L26.8133 12.6869L26.8194 12.6893L26.8354 12.6958C26.8477 12.7009 26.8633 12.7074 26.882 12.7155C26.9194 12.7316 26.9693 12.754 27.03 12.7832C27.1514 12.8415 27.3167 12.9272 27.5127 13.0446C27.9041 13.2791 28.4226 13.643 28.959 14.1725C30.0418 15.2414 31.1727 16.9628 31.4925 19.5747C31.5604 20.1293 31.1659 20.6339 30.6113 20.7018C30.0567 20.7697 29.5521 20.3752 29.4842 19.8206C29.226 17.7116 28.3336 16.3982 27.5376 15.6124C27.1346 15.2145 26.7499 14.9462 26.4729 14.7802C26.3347 14.6974 26.2245 14.6408 26.1539 14.6069C26.1187 14.59 26.0935 14.5788 26.0798 14.5729L26.0686 14.5682C25.5523 14.3633 25.2973 13.7798 25.499 13.2612Z" fill="black"/>
<path fill-rule="evenodd" clip-rule="evenodd" d="M11.9705 13.389C12.1025 12.8461 12.6495 12.5129 13.1924 12.6449L12.9535 13.6279C13.1924 12.6449 13.193 12.645 13.1935 12.6452L13.1947 12.6454L13.1972 12.6461L13.2033 12.6476L13.2189 12.6516C13.2308 12.6547 13.2459 12.6588 13.2639 12.6639C13.3 12.674 13.3478 12.6882 13.4061 12.707C13.5224 12.7448 13.681 12.8014 13.8699 12.8822C14.2466 13.0434 14.751 13.3035 15.2834 13.7062C16.3612 14.5212 17.53 15.9044 17.9909 18.145C18.1035 18.6922 17.7511 19.2271 17.2039 19.3397C16.6566 19.4523 16.1217 19.0999 16.0091 18.5527C15.6608 16.8591 14.8063 15.882 14.0631 15.32C13.6851 15.0342 13.3296 14.8517 13.0741 14.7424C12.9469 14.688 12.8462 14.6524 12.7823 14.6318C12.7504 14.6214 12.728 14.6149 12.7162 14.6116L12.7073 14.6091C12.1687 14.4741 11.8391 13.9294 11.9705 13.389Z" fill="black"/>
<path fill-rule="evenodd" clip-rule="evenodd" d="M22.0296 13.389C22.161 13.9294 21.8314 14.4741 21.2928 14.6091L21.2839 14.6116C21.2722 14.6149 21.2497 14.6214 21.2178 14.6318C21.154 14.6524 21.0533 14.688 20.926 14.7424C20.6706 14.8517 20.315 15.0342 19.937 15.32C19.1939 15.882 18.3394 16.8591 17.991 18.5527C17.8784 19.0999 17.3435 19.4523 16.7963 19.3397C16.249 19.2271 15.8967 18.6922 16.0092 18.145C16.4701 15.9044 17.6389 14.5212 18.7167 13.7062C19.2492 13.3035 19.7535 13.0434 20.1303 12.8822C20.3192 12.8014 20.4777 12.7448 20.5941 12.707C20.6523 12.6882 20.7002 12.674 20.7362 12.6639C20.7542 12.6588 20.7693 12.6547 20.7813 12.6516L20.7969 12.6476L20.8029 12.6461L20.8054 12.6454L20.8066 12.6452C20.8072 12.645 20.8077 12.6449 21.0466 13.6279L20.8077 12.6449C21.3506 12.5129 21.8977 12.8461 22.0296 13.389Z" fill="black"/>
<path fill-rule="evenodd" clip-rule="evenodd" d="M14.489 24.7384C14.489 24.7384 14.489 24.7384 14.489 24.7384C14.4881 24.7386 14.4868 24.7389 14.4849 24.7393C14.4766 24.7411 14.4588 24.7451 14.4327 24.7519C14.3803 24.7655 14.2949 24.7901 14.1843 24.83C13.9627 24.91 13.6451 25.05 13.2926 25.2833C12.5987 25.7425 11.7399 26.5812 11.2127 28.1188C11.0315 28.6473 10.4562 28.9288 9.9277 28.7476C9.3992 28.5664 9.11765 27.9911 9.29885 27.4626C9.98565 25.4594 11.1501 24.275 12.176 23.596C12.6834 23.2603 13.1497 23.0525 13.4972 22.927C13.6712 22.8642 13.8165 22.8216 13.9238 22.7937C13.9774 22.7798 14.0218 22.7695 14.0555 22.7621C14.0724 22.7585 14.0867 22.7555 14.0983 22.7533L14.1135 22.7503L14.1195 22.7492L14.1221 22.7487L14.1233 22.7485C14.1239 22.7484 14.1245 22.7483 14.3023 23.7442L14.1245 22.7483C14.6745 22.6501 15.2 23.0163 15.2982 23.5663C15.3959 24.1134 15.0341 24.6362 14.489 24.7384Z" fill="black"/>
<path fill-rule="evenodd" clip-rule="evenodd" d="M18.7019 23.5663C18.8001 23.0163 19.3256 22.6501 19.8756 22.7483L19.6978 23.7442C19.8756 22.7483 19.8762 22.7484 19.8768 22.7485L19.878 22.7487L19.8806 22.7492L19.8866 22.7503L19.9018 22.7533C19.9134 22.7555 19.9276 22.7585 19.9445 22.7621C19.9783 22.7695 20.0226 22.7798 20.0763 22.7937C20.1836 22.8216 20.3289 22.8642 20.5029 22.927C20.8504 23.0525 21.3167 23.2603 21.8241 23.596C22.85 24.275 24.0144 25.4594 24.7012 27.4626C24.8824 27.9911 24.6009 28.5664 24.0724 28.7476C23.5439 28.9288 22.9685 28.6473 22.7873 28.1188C22.2602 26.5812 21.4014 25.7425 20.7075 25.2833C20.355 25.05 20.0374 24.91 19.8157 24.83C19.7052 24.7901 19.6198 24.7655 19.5674 24.7519C19.5413 24.7451 19.5235 24.7411 19.5152 24.7393M19.511 24.7384C19.511 24.7384 19.5111 24.7384 19.5111 24.7384Z" fill="black"/>
<path fill-rule="evenodd" clip-rule="evenodd" d="M16.9999 19.3605C15.6963 19.3605 14.6395 20.4173 14.6395 21.7209C14.6395 23.0246 15.6963 24.0814 16.9999 24.0814C18.3036 24.0814 19.3604 23.0246 19.3604 21.7209C19.3604 20.4173 18.3036 19.3605 16.9999 19.3605ZM12.6162 21.7209C12.6162 19.2999 14.5789 17.3372 16.9999 17.3372C19.421 17.3372 21.3837 19.2999 21.3837 21.7209C21.3837 24.142 19.421 26.1046 16.9999 26.1046C14.5789 26.1046 12.6162 24.142 12.6162 21.7209Z" fill="black"/>
<path fill-rule="evenodd" clip-rule="evenodd" d="M23.7442 7.22093C22.0681 7.22093 20.7093 8.5797 20.7093 10.2558C20.7093 11.9319 22.0681 13.2907 23.7442 13.2907C25.4203 13.2907 26.7791 11.9319 26.7791 10.2558C26.7791 8.5797 25.4203 7.22093 23.7442 7.22093ZM18.686 10.2558C18.686 7.46228 20.9506 5.19768 23.7442 5.19768C26.5377 5.19768 28.8023 7.46228 28.8023 10.2558C28.8023 13.0494 26.5377 15.314 23.7442 15.314C20.9506 15.314 18.686 13.0494 18.686 10.2558Z" fill="black"/>
<path fill-rule="evenodd" clip-rule="evenodd" d="M10.2559 7.22093C8.57977 7.22093 7.22101 8.5797 7.22101 10.2558C7.22101 11.9319 8.57977 13.2907 10.2559 13.2907C11.932 13.2907 13.2908 11.9319 13.2908 10.2558C13.2908 8.5797 11.932 7.22093 10.2559 7.22093ZM5.19775 10.2558C5.19775 7.46228 7.46236 5.19768 10.2559 5.19768C13.0494 5.19768 15.314 7.46228 15.314 10.2558C15.314 13.0494 13.0494 15.314 10.2559 15.314C7.46236 15.314 5.19775 13.0494 5.19775 10.2558Z" fill="black"/>
</svg>
