<svg width="193" height="64" viewBox="0 0 193 64" fill="none" xmlns="http://www.w3.org/2000/svg">
<rect x="0.5" y="0.5" width="192" height="63" rx="12.5" fill="#0C0D10"/>
<path d="M131.121 30.7216V34.3872H128.811V36.7911H131.121V44.9591C131.121 47.7481 132.389 48.8638 135.58 48.8638C136.141 48.8638 136.675 48.7974 137.142 48.7177V46.3403C136.741 46.3802 136.488 46.4067 136.047 46.4067C134.619 46.4067 133.991 45.7427 133.991 44.2286V36.7911H137.142V34.3872H133.991V30.7216H131.121Z" fill="white"/>
<path d="M145.27 49.063C149.516 49.063 152.119 46.2341 152.119 41.5458C152.119 36.8841 149.502 34.0419 145.27 34.0419C141.025 34.0419 138.408 36.8841 138.408 41.5458C138.408 46.2341 141.011 49.063 145.27 49.063ZM145.27 46.5263C142.774 46.5263 141.372 44.7067 141.372 41.5458C141.372 38.4114 142.774 36.5786 145.27 36.5786C147.753 36.5786 149.168 38.4114 149.168 41.5458C149.168 44.6934 147.753 46.5263 145.27 46.5263Z" fill="white"/>
<path d="M154.346 48.7841H157.217V40.2442C157.217 38.2122 158.752 36.8442 160.928 36.8442C161.435 36.8442 162.29 36.9372 162.53 37.0169V34.2013C162.223 34.1216 161.676 34.0817 161.248 34.0817C159.353 34.0817 157.737 35.1177 157.323 36.5388H157.11V34.3208H154.346V48.7841Z" fill="white"/>
<path d="M169.657 36.4724C171.78 36.4724 173.168 37.9466 173.235 40.2177H165.892C166.052 37.9599 167.534 36.4724 169.657 36.4724ZM173.222 44.8794C172.688 46.0083 171.499 46.6325 169.764 46.6325C167.468 46.6325 165.986 45.0255 165.892 42.4888V42.3294H176.159V41.3333C176.159 36.7911 173.716 34.0419 169.67 34.0419C165.572 34.0419 162.968 36.977 162.968 41.5989C162.968 46.2208 165.518 49.063 169.684 49.063C173.008 49.063 175.331 47.4692 175.985 44.8794H173.222Z" fill="white"/>
<path d="M112.298 43.443C112.519 46.9945 115.494 49.2659 119.922 49.2659C124.654 49.2659 127.615 46.8844 127.615 43.0851C127.615 40.098 125.927 38.4461 121.831 37.4963L119.631 36.9594C117.03 36.3537 115.978 35.5415 115.978 34.1237C115.978 32.3341 117.611 31.1641 120.06 31.1641C122.385 31.1641 123.99 32.3066 124.281 34.1374H127.297C127.117 30.7924 124.156 28.4385 120.102 28.4385C115.743 28.4385 112.837 30.7924 112.837 34.3302C112.837 37.2485 114.484 38.9829 118.095 39.8226L120.669 40.4421C123.312 41.0616 124.474 41.9701 124.474 43.4843C124.474 45.2463 122.648 46.5265 120.157 46.5265C117.487 46.5265 115.632 45.3289 115.369 43.443H112.298Z" fill="white"/>
<path d="M82.5637 34.0817C80.5879 34.0817 78.879 35.0645 77.9979 36.7114H77.7843V34.3208H75.0207V53.5919H77.8911V46.5927H78.118C78.879 48.12 80.5211 49.0231 82.5904 49.0231C86.2618 49.0231 88.5981 46.1411 88.5981 41.5458C88.5981 36.9505 86.2618 34.0817 82.5637 34.0817ZM81.7494 46.4599C79.3463 46.4599 77.8377 44.5739 77.8377 41.5591C77.8377 38.5309 79.3463 36.645 81.7627 36.645C84.1925 36.645 85.6477 38.4911 85.6477 41.5458C85.6477 44.6138 84.1925 46.4599 81.7494 46.4599Z" fill="white"/>
<path d="M98.6419 34.0817C96.666 34.0817 94.9572 35.0645 94.0761 36.7114H93.8625V34.3208H91.0989V53.5919H93.9693V46.5927H94.1962C94.9572 48.12 96.5993 49.0231 98.6686 49.0231C102.34 49.0231 104.676 46.1411 104.676 41.5458C104.676 36.9505 102.34 34.0817 98.6419 34.0817ZM97.8275 46.4599C95.4245 46.4599 93.9159 44.5739 93.9159 41.5591C93.9159 38.5309 95.4245 36.645 97.8409 36.645C100.271 36.645 101.726 38.4911 101.726 41.5458C101.726 44.6138 100.271 46.4599 97.8275 46.4599Z" fill="white"/>
<path d="M69.8709 48.7841H73.1641L65.9549 28.9203H62.6201L55.4109 48.7841H58.5934L60.4338 43.5118H68.0443L69.8709 48.7841ZM64.1284 32.5269H64.3636L67.2556 40.9239H61.2225L64.1284 32.5269Z" fill="white"/>
<path d="M57.3389 13.9375V23.52H60.8167C63.687 23.52 65.3492 21.7602 65.3492 18.6989C65.3492 15.684 63.6737 13.9375 60.8167 13.9375H57.3389ZM58.8341 15.2922H60.6498C62.6457 15.2922 63.8272 16.554 63.8272 18.7188C63.8272 20.9168 62.6657 22.1653 60.6498 22.1653H58.8341V15.2922Z" fill="white"/>
<path d="M70.4397 23.6594C72.5624 23.6594 73.8641 22.245 73.8641 19.9008C73.8641 17.57 72.5557 16.1489 70.4397 16.1489C68.317 16.1489 67.0086 17.57 67.0086 19.9008C67.0086 22.245 68.3103 23.6594 70.4397 23.6594ZM70.4397 22.3911C69.1914 22.3911 68.4905 21.4813 68.4905 19.9008C68.4905 18.3336 69.1914 17.4172 70.4397 17.4172C71.6813 17.4172 72.3888 18.3336 72.3888 19.9008C72.3888 21.4747 71.6813 22.3911 70.4397 22.3911Z" fill="white"/>
<path d="M84.9489 16.2883H83.5137L82.2187 21.8067H82.1053L80.61 16.2883H79.2349L77.7397 21.8067H77.6329L76.3312 16.2883H74.876L76.8786 23.52H78.3538L79.849 18.1942H79.9625L81.4644 23.52H82.953L84.9489 16.2883Z" fill="white"/>
<path d="M86.6017 23.52H88.0369V19.2899C88.0369 18.161 88.7111 17.4571 89.7724 17.4571C90.8338 17.4571 91.3411 18.0348 91.3411 19.1969V23.52H92.7763V18.8383C92.7763 17.1184 91.8818 16.1489 90.2597 16.1489C89.165 16.1489 88.444 16.6336 88.0903 17.4372H87.9835V16.2883H86.6017V23.52Z" fill="white"/>
<path d="M95.0365 23.52H96.4717V13.4661H95.0365V23.52Z" fill="white"/>
<path d="M101.869 23.6594C103.992 23.6594 105.294 22.245 105.294 19.9008C105.294 17.57 103.985 16.1489 101.869 16.1489C99.7465 16.1489 98.4382 17.57 98.4382 19.9008C98.4382 22.245 99.7398 23.6594 101.869 23.6594ZM101.869 22.3911C100.621 22.3911 99.9201 21.4813 99.9201 19.9008C99.9201 18.3336 100.621 17.4172 101.869 17.4172C103.111 17.4172 103.818 18.3336 103.818 19.9008C103.818 21.4747 103.111 22.3911 101.869 22.3911Z" fill="white"/>
<path d="M109.57 22.4375C108.789 22.4375 108.221 22.059 108.221 21.4083C108.221 20.7708 108.675 20.4321 109.677 20.3657L111.452 20.2528V20.8571C111.452 21.7536 110.651 22.4375 109.57 22.4375ZM109.203 23.6395C110.157 23.6395 110.952 23.2278 111.385 22.504H111.499V23.52H112.881V18.5793C112.881 17.052 111.853 16.1489 110.03 16.1489C108.382 16.1489 107.207 16.9458 107.06 18.1875H108.448C108.609 17.6762 109.163 17.384 109.964 17.384C110.945 17.384 111.452 17.8157 111.452 18.5793V19.2036L109.483 19.3165C107.754 19.4227 106.78 20.1731 106.78 21.4747C106.78 22.7961 107.801 23.6395 109.203 23.6395Z" fill="white"/>
<path d="M117.751 23.6395C118.752 23.6395 119.6 23.168 120.034 22.3778H120.147V23.52H121.522V13.4661H120.087V17.4372H119.98C119.587 16.6403 118.746 16.1688 117.751 16.1688C115.915 16.1688 114.734 17.6165 114.734 19.9008C114.734 22.1918 115.902 23.6395 117.751 23.6395ZM118.158 17.4504C119.36 17.4504 120.114 18.4 120.114 19.9075C120.114 21.4215 119.366 22.3579 118.158 22.3579C116.943 22.3579 116.216 21.4348 116.216 19.9008C116.216 18.3801 116.95 17.4504 118.158 17.4504Z" fill="white"/>
<path d="M130.829 23.6594C132.952 23.6594 134.253 22.245 134.253 19.9008C134.253 17.57 132.945 16.1489 130.829 16.1489C128.706 16.1489 127.398 17.57 127.398 19.9008C127.398 22.245 128.7 23.6594 130.829 23.6594ZM130.829 22.3911C129.581 22.3911 128.88 21.4813 128.88 19.9008C128.88 18.3336 129.581 17.4172 130.829 17.4172C132.071 17.4172 132.778 18.3336 132.778 19.9008C132.778 21.4747 132.071 22.3911 130.829 22.3911Z" fill="white"/>
<path d="M136.153 23.52H137.588V19.2899C137.588 18.161 138.262 17.4571 139.324 17.4571C140.385 17.4571 140.893 18.0348 140.893 19.1969V23.52H142.328V18.8383C142.328 17.1184 141.433 16.1489 139.811 16.1489C138.716 16.1489 137.995 16.6336 137.642 17.4372H137.535V16.2883H136.153V23.52Z" fill="white"/>
<path d="M148.937 14.4887V16.3215H147.783V17.5235H148.937V21.6075C148.937 23.002 149.572 23.5598 151.167 23.5598C151.447 23.5598 151.714 23.5266 151.948 23.4868V22.2981C151.748 22.318 151.621 22.3313 151.401 22.3313C150.686 22.3313 150.373 21.9993 150.373 21.2422V17.5235H151.948V16.3215H150.373V14.4887H148.937Z" fill="white"/>
<path d="M153.874 23.52H155.31V19.2965C155.31 18.2008 155.964 17.4637 157.139 17.4637C158.153 17.4637 158.694 18.0481 158.694 19.2036V23.52H160.129V18.8516C160.129 17.1317 159.175 16.1555 157.626 16.1555C156.531 16.1555 155.764 16.6403 155.41 17.4504H155.296V13.4661H153.874V23.52Z" fill="white"/>
<path d="M165.306 17.3641C166.368 17.3641 167.062 18.1012 167.095 19.2368H163.424C163.504 18.1079 164.245 17.3641 165.306 17.3641ZM167.089 21.5676C166.822 22.1321 166.228 22.4442 165.36 22.4442C164.212 22.4442 163.471 21.6407 163.424 20.3723V20.2926H168.557V19.7946C168.557 17.5235 167.336 16.1489 165.313 16.1489C163.264 16.1489 161.962 17.6165 161.962 19.9274C161.962 22.2383 163.237 23.6594 165.32 23.6594C166.982 23.6594 168.143 22.8625 168.47 21.5676H167.089Z" fill="white"/>
<path d="M39.8368 32.4812C39.8716 29.7916 41.3236 27.2467 43.6269 25.8379C42.1738 23.7734 39.74 22.4644 37.2078 22.3856C34.507 22.1036 31.8887 23.9934 30.5125 23.9934C29.1096 23.9934 26.9906 22.4136 24.7088 22.4603C21.7346 22.5559 18.9619 24.2381 17.5149 26.8249C14.4043 32.1824 16.7245 40.0561 19.7041 44.3866C21.1949 46.5072 22.9372 48.8759 25.2169 48.7919C27.4478 48.6999 28.2809 47.3768 30.9738 47.3768C33.6416 47.3768 34.4233 48.7919 36.7493 48.7385C39.1431 48.6999 40.6513 46.6085 42.0898 44.4679C43.1609 42.9569 43.9851 41.287 44.5319 39.5199C41.7187 38.3362 39.8401 35.5198 39.8368 32.4812Z" fill="white"/>
<path d="M35.4434 19.5376C36.7486 17.9789 37.3916 15.9754 37.2359 13.9526C35.2418 14.161 33.3999 15.1091 32.077 16.608C30.7835 18.0725 30.1103 20.0408 30.2376 21.9862C32.2323 22.0067 34.1934 21.0843 35.4434 19.5376Z" fill="white"/>
<rect x="0.5" y="0.5" width="192" height="63" rx="12.5" stroke="#A6A6A6"/>
</svg>
