<svg width="417" height="417" viewBox="0 0 417 417" fill="none" xmlns="http://www.w3.org/2000/svg">
<g filter="url(#filter0_f_20_230)">
<path d="M85.6568 301.792L215.831 362.493C248.159 377.568 286.712 363.545 301.792 331.206L362.493 201.032C377.568 168.703 363.535 130.146 331.206 115.071L201.032 54.3697C168.703 39.2947 130.146 53.3283 115.071 85.6568L54.3698 215.831C39.2901 248.17 53.329 286.717 85.6568 301.792Z" stroke="#EAC748" stroke-width="15"/>
</g>
<g filter="url(#filter1_f_20_230)">
<path d="M104.657 295.792L234.832 356.493C267.16 371.568 305.713 357.545 320.792 325.206L381.494 195.032C396.569 162.703 382.535 124.146 350.207 109.071L220.032 48.3697C187.704 33.2947 149.147 47.3283 134.072 79.6568L73.3702 209.831C58.2906 242.17 72.3295 280.717 104.657 295.792Z" stroke="#EAC748" stroke-width="15"/>
</g>
<defs>
<filter id="filter0_f_20_230" x="0.807861" y="0.809814" width="415.245" height="415.245" filterUnits="userSpaceOnUse" color-interpolation-filters="sRGB">
<feFlood flood-opacity="0" result="BackgroundImageFix"/>
<feBlend mode="normal" in="SourceGraphic" in2="BackgroundImageFix" result="shape"/>
<feGaussianBlur stdDeviation="20" result="effect1_foregroundBlur_20_230"/>
</filter>
<filter id="filter1_f_20_230" x="42.8083" y="17.8098" width="369.245" height="369.245" filterUnits="userSpaceOnUse" color-interpolation-filters="sRGB">
<feFlood flood-opacity="0" result="BackgroundImageFix"/>
<feBlend mode="normal" in="SourceGraphic" in2="BackgroundImageFix" result="shape"/>
<feGaussianBlur stdDeviation="8.5" result="effect1_foregroundBlur_20_230"/>
</filter>
</defs>
</svg>
