<svg width="31" height="31" viewBox="0 0 31 31" fill="none" xmlns="http://www.w3.org/2000/svg">
<path fill-rule="evenodd" clip-rule="evenodd" d="M7.85985 5.81153C6.81855 5.81153 6.169 6.74462 6.46647 7.62624C7.5331 10.7873 9.52075 15.5426 12.4849 18.5068C15.449 21.471 20.2044 23.4586 23.3655 24.5252C24.247 24.8227 25.1802 24.1732 25.1802 23.1318V19.9221C25.1802 19.8073 25.118 19.7015 25.0175 19.6456L22.2217 18.0912C22.1304 18.0404 22.0199 18.038 21.9265 18.0847L18.9448 19.5755C18.7584 19.6688 18.5464 19.698 18.3417 19.6587L18.5204 18.7267C18.3417 19.6587 18.342 19.6588 18.3417 19.6587L18.339 19.6582L18.3354 19.6575L18.3259 19.6556L18.2972 19.6497C18.274 19.6447 18.2425 19.6377 18.2035 19.6285C18.1254 19.6101 18.0169 19.5825 17.8831 19.5439C17.6159 19.4668 17.2456 19.3448 16.8153 19.1614C15.9585 18.7962 14.8399 18.1777 13.8269 17.1648C12.8141 16.1519 12.1939 15.0318 11.827 14.1737C11.6428 13.7427 11.5198 13.3718 11.442 13.1042C11.403 12.9701 11.3752 12.8614 11.3566 12.7832C11.3472 12.7442 11.3402 12.7127 11.3352 12.6894L11.3291 12.6608L11.3272 12.6513L11.3265 12.6478L11.3262 12.6463C11.3262 12.646 11.326 12.6451 12.2575 12.4639L11.3262 12.6463C11.2862 12.4408 11.3151 12.2267 11.4087 12.0395L12.8997 9.05733C12.9464 8.96403 12.9441 8.85359 12.8934 8.76228L11.3457 5.97437C11.3457 5.97436 11.3457 5.97439 11.3457 5.97437C11.2899 5.87386 11.1839 5.81153 11.0691 5.81153H7.85985ZM13.264 12.5727C13.2642 12.5732 13.2644 12.5738 13.2645 12.5743C13.3242 12.7797 13.4223 13.0771 13.5722 13.4276C13.8735 14.1324 14.3735 15.0272 15.169 15.8227C15.169 15.8227 15.169 15.8227 15.169 15.8227L14.498 16.4937M15.169 15.8227C15.9644 16.6181 16.8571 17.1161 17.5594 17.4154C17.9087 17.5642 18.205 17.6614 18.4094 17.7204C18.4098 17.7205 18.409 17.7203 18.4094 17.7204L21.0776 16.3872C21.0776 16.3872 21.0776 16.3872 21.0776 16.3872C21.7316 16.0602 22.5049 16.0771 23.1439 16.4324L25.9398 17.9868C26.6424 18.3775 27.0781 19.1181 27.0781 19.9221V23.1318C27.0781 25.3596 24.9747 27.0713 22.7587 26.3236C19.5579 25.2436 14.4379 23.144 11.1428 19.8489C7.84778 16.5538 5.74815 11.4338 4.66813 8.23304C3.92043 6.01707 5.63205 3.91357 7.85985 3.91357H11.0691C11.8735 3.91357 12.6146 4.34983 13.005 5.05306L14.5528 7.8411C14.9074 8.47985 14.9241 9.25252 14.5973 9.90611C14.5973 9.90613 14.5973 9.90609 14.5973 9.90611L13.264 12.5727" fill="#1C1B1F"/>
</svg>
