<svg width="30" height="36" viewBox="0 0 30 36" fill="none" xmlns="http://www.w3.org/2000/svg">
<path fill-rule="evenodd" clip-rule="evenodd" d="M20.9375 24.375C20.2471 24.375 19.6875 25.0466 19.6875 25.875C19.6875 26.7034 20.2471 27.375 20.9375 27.375H23.375C24.0999 27.375 24.6875 26.6698 24.6875 25.8V24.375H20.9375ZM17.8125 25.875C17.8125 23.8039 19.2116 22.125 20.9375 22.125H25.625C26.1428 22.125 26.5625 22.6287 26.5625 23.25V25.8C26.5625 27.9125 25.1354 29.625 23.375 29.625H20.9375C19.2116 29.625 17.8125 27.9461 17.8125 25.875Z" fill="#1C1B1F"/>
<path fill-rule="evenodd" clip-rule="evenodd" d="M5.9375 27.375C5.24714 27.375 4.6875 28.0466 4.6875 28.875C4.6875 29.7034 5.24714 30.375 5.9375 30.375H7.75C8.47486 30.375 9.0625 29.6698 9.0625 28.8V27.375H5.9375ZM2.8125 28.875C2.8125 26.8039 4.21161 25.125 5.9375 25.125H10C10.5178 25.125 10.9375 25.6287 10.9375 26.25V28.8C10.9375 30.9125 9.51039 32.625 7.75 32.625H5.9375C4.21161 32.625 2.8125 30.9461 2.8125 28.875Z" fill="#1C1B1F"/>
<path fill-rule="evenodd" clip-rule="evenodd" d="M26.5372 8.83456C26.6565 9.43917 26.3448 10.0453 25.841 10.1885L10.216 14.6277C9.71212 14.7709 9.20698 14.3968 9.08769 13.7922C8.9684 13.1876 9.28014 12.5814 9.78398 12.4383L25.409 7.99902C25.9128 7.85587 26.418 8.22996 26.5372 8.83456Z" fill="#1C1B1F"/>
<path fill-rule="evenodd" clip-rule="evenodd" d="M26.2054 2.11655C26.4309 2.32987 26.5625 2.65544 26.5625 3V25.2693C26.5625 25.8906 26.1428 26.3943 25.625 26.3943C25.1072 26.3943 24.6875 25.8906 24.6875 25.2693V4.42695L10.9375 8.38695V28.5C10.9375 29.1213 10.5178 29.625 10 29.625C9.48223 29.625 9.0625 29.1213 9.0625 28.5V7.5C9.0625 6.97982 9.35969 6.52746 9.78121 6.40607L25.4062 1.90607C25.6854 1.82565 25.9799 1.90322 26.2054 2.11655Z" fill="#1C1B1F"/>
</svg>
