<svg width="34" height="34" viewBox="0 0 34 34" fill="none" xmlns="http://www.w3.org/2000/svg">
<path d="M17 4.52326C21.6559 4.52326 25.4302 8.29759 25.4302 12.9535V25.4302H8.56977V12.9535C8.56977 8.29759 12.3441 4.52326 17 4.52326ZM27.4535 25.4302V12.9535C27.4535 7.18018 22.7733 2.5 17 2.5C11.2267 2.5 6.54651 7.18018 6.54651 12.9535V25.4302H3.51163C2.95292 25.4302 2.5 25.8832 2.5 26.4419C2.5 27.0006 2.95292 27.4535 3.51163 27.4535H30.4884C31.0471 27.4535 31.5 27.0006 31.5 26.4419C31.5 25.8832 31.0471 25.4302 30.4884 25.4302H27.4535Z" fill="black"/>
<path d="M12.6162 26.4419C12.6162 25.8832 13.0691 25.4302 13.6278 25.4302H20.372C20.9307 25.4302 21.3837 25.8832 21.3837 26.4419V27.1163C21.3837 29.5373 19.421 31.5 16.9999 31.5C14.5789 31.5 12.6162 29.5373 12.6162 27.1163V26.4419ZM14.6634 27.4535C14.827 28.5974 15.8108 29.4767 16.9999 29.4767C18.1891 29.4767 19.1729 28.5974 19.3365 27.4535H14.6634Z" fill="black"/>
</svg>
