<svg width="34" height="33" viewBox="0 0 34 33" fill="none" xmlns="http://www.w3.org/2000/svg">
<path fill-rule="evenodd" clip-rule="evenodd" d="M13.1234 2.34986C13.5866 2.22165 14.076 2.437 14.2944 2.8651C14.7976 3.85142 15.8212 4.52326 17 4.52326C18.1788 4.52326 19.2024 3.85142 19.7056 2.8651C19.924 2.437 20.4134 2.22165 20.8766 2.34986C23.1486 2.9788 25.1954 4.14612 26.8713 5.7045C27.1986 6.00882 27.2875 6.49186 27.0898 6.8927C26.8912 7.29558 26.7791 7.74955 26.7791 8.23256C26.7791 9.90867 28.1378 11.2674 29.814 11.2674L29.8563 11.2671C30.3035 11.2608 30.7018 11.5488 30.8359 11.9755C31.2676 13.35 31.5 14.8116 31.5 16.3256C31.5 17.3248 31.3988 18.3015 31.2057 19.2455C31.1018 19.7532 30.6313 20.1003 30.1156 20.0496C30.0168 20.0399 29.9162 20.0349 29.814 20.0349C28.1378 20.0349 26.7791 21.3937 26.7791 23.0698C26.7791 23.8158 27.047 24.4967 27.493 25.0253C27.8271 25.4213 27.808 26.0058 27.4487 26.3792C25.7374 28.1574 23.575 29.5007 21.1438 30.2246C20.6159 30.3817 20.0592 30.0877 19.8915 29.563C19.5 28.3383 18.352 27.4535 17 27.4535C15.648 27.4535 14.5 28.3383 14.1085 29.563C13.9408 30.0877 13.3841 30.3817 12.8562 30.2246C10.425 29.5007 8.26263 28.1574 6.55128 26.3792C6.19198 26.0058 6.17287 25.4213 6.50701 25.0253C6.95304 24.4967 7.22093 23.8158 7.22093 23.0698C7.22093 21.3937 5.86217 20.0349 4.18605 20.0349C4.08385 20.0349 3.98322 20.0399 3.88436 20.0496C3.36873 20.1003 2.89816 19.7532 2.79433 19.2455C2.60123 18.3015 2.5 17.3248 2.5 16.3256C2.5 14.8116 2.73237 13.35 3.16412 11.9755C3.29815 11.5488 3.69648 11.2608 4.14369 11.2671L4.18605 11.2674C5.86217 11.2674 7.22093 9.90867 7.22093 8.23256C7.22093 7.74955 7.10883 7.29559 6.91018 6.8927C6.71255 6.49186 6.80136 6.00882 7.12865 5.7045C8.80462 4.14612 10.8514 2.9788 13.1234 2.34986ZM9.01861 6.73523C9.16531 7.20911 9.24419 7.71223 9.24419 8.23256C9.24419 10.7811 7.35934 12.8895 4.90757 13.2396C4.65676 14.2257 4.52326 15.2594 4.52326 16.3256C4.52326 16.9047 4.56265 17.4742 4.63881 18.0316C7.22023 18.2606 9.24419 20.4288 9.24419 23.0698C9.24419 23.9693 9.00867 24.8153 8.59636 25.5479C9.75196 26.6016 11.1056 27.4405 12.5942 28.0024C13.4621 26.4674 15.109 25.4302 17 25.4302C18.891 25.4302 20.5379 26.4674 21.4058 28.0024C22.8944 27.4405 24.248 26.6016 25.4036 25.5479C24.9913 24.8153 24.7558 23.9693 24.7558 23.0698C24.7558 20.4288 26.7798 18.2606 29.3612 18.0316C29.4373 17.4742 29.4767 16.9047 29.4767 16.3256C29.4767 15.2594 29.3432 14.2257 29.0924 13.2396C26.6407 12.8895 24.7558 10.7811 24.7558 8.23256C24.7558 7.71223 24.8347 7.20911 24.9814 6.73523C23.8275 5.77376 22.4981 5.01712 21.0489 4.52022C20.1272 5.74931 18.6573 6.54652 17 6.54652C15.3427 6.54652 13.8728 5.74931 12.9511 4.52022C11.5019 5.01712 10.1725 5.77376 9.01861 6.73523Z" fill="black"/>
<path fill-rule="evenodd" clip-rule="evenodd" d="M11.2673 16.3256C11.2673 13.1596 13.8339 10.593 16.9999 10.593C20.1659 10.593 22.7324 13.1596 22.7324 16.3256C22.7324 19.4916 20.1659 22.0581 16.9999 22.0581C13.8339 22.0581 11.2673 19.4916 11.2673 16.3256ZM16.9999 12.6163C14.9513 12.6163 13.2906 14.277 13.2906 16.3256C13.2906 18.3742 14.9513 20.0349 16.9999 20.0349C19.0485 20.0349 20.7092 18.3742 20.7092 16.3256C20.7092 14.277 19.0485 12.6163 16.9999 12.6163Z" fill="black"/>
</svg>
