<svg width="36" height="36" viewBox="0 0 36 36" fill="none" xmlns="http://www.w3.org/2000/svg">
<path fill-rule="evenodd" clip-rule="evenodd" d="M3.375 14.25C3.375 13.6287 3.87868 13.125 4.5 13.125H31.5C32.1213 13.125 32.625 13.6287 32.625 14.25C32.625 14.8713 32.1213 15.375 31.5 15.375H4.5C3.87868 15.375 3.375 14.8713 3.375 14.25Z" fill="black"/>
<path fill-rule="evenodd" clip-rule="evenodd" d="M3.375 6.75C3.375 6.12868 3.87868 5.625 4.5 5.625H31.5C32.1213 5.625 32.625 6.12868 32.625 6.75C32.625 7.37132 32.1213 7.875 31.5 7.875H4.5C3.87868 7.875 3.375 7.37132 3.375 6.75Z" fill="black"/>
<path fill-rule="evenodd" clip-rule="evenodd" d="M3.375 21.75C3.375 21.1287 3.87868 20.625 4.5 20.625H31.5C32.1213 20.625 32.625 21.1287 32.625 21.75C32.625 22.3713 32.1213 22.875 31.5 22.875H4.5C3.87868 22.875 3.375 22.3713 3.375 21.75Z" fill="black"/>
<path fill-rule="evenodd" clip-rule="evenodd" d="M3.375 29.25C3.375 28.6287 3.87868 28.125 4.5 28.125H31.5C32.1213 28.125 32.625 28.6287 32.625 29.25C32.625 29.8713 32.1213 30.375 31.5 30.375H4.5C3.87868 30.375 3.375 29.8713 3.375 29.25Z" fill="black"/>
</svg>
