<svg width="20" height="20" viewBox="0 0 20 20" fill="none" xmlns="http://www.w3.org/2000/svg">
<circle cx="10" cy="10" r="10" fill="#FF6948"/>
<path fill-rule="evenodd" clip-rule="evenodd" d="M5.73483 5.73483C5.88128 5.58839 6.11872 5.58839 6.26517 5.73483L14.2652 13.7348C14.4116 13.8813 14.4116 14.1187 14.2652 14.2652C14.1187 14.4116 13.8813 14.4116 13.7348 14.2652L5.73483 6.26517C5.58839 6.11872 5.58839 5.88128 5.73483 5.73483Z" fill="white"/>
<path fill-rule="evenodd" clip-rule="evenodd" d="M14.2652 5.73483C14.4116 5.88128 14.4116 6.11872 14.2652 6.26517L6.26517 14.2652C6.11872 14.4116 5.88128 14.4116 5.73483 14.2652C5.58839 14.1187 5.58839 13.8813 5.73483 13.7348L13.7348 5.73483C13.8813 5.58839 14.1187 5.58839 14.2652 5.73483Z" fill="white"/>
</svg>
