<svg width="163" height="44" viewBox="0 0 163 44" fill="none" xmlns="http://www.w3.org/2000/svg">
<g clip-path="url(#clip0_416_1002)">
<path d="M30.8128 23.6489C30.1713 25.7394 29.3176 27.7692 28.2519 29.6936C27.7191 30.6558 27.1305 31.5943 26.4254 32.4563C25.7308 33.321 24.9302 34.125 23.9626 34.7339C23.5013 35.0292 22.8757 35.3086 22.25 35.2348C21.627 35.1795 21.0756 34.8974 20.6117 34.5573C19.6865 33.8614 19.0052 32.9572 18.4008 32.0345C17.237 30.1497 16.3621 28.1251 15.7126 26.0373C16.1554 27.0364 16.5212 27.6427 17.0302 28.6023C17.5312 29.5671 18.0747 30.5108 18.6924 31.3939C19.2995 32.277 19.9755 33.1391 20.8211 33.7454C21.24 34.0433 21.7119 34.2621 22.1891 34.2937C22.6742 34.3385 23.1143 34.1698 23.5755 33.8877C24.4716 33.3421 25.251 32.5855 25.9349 31.7577C26.6189 30.9273 27.2313 30.0337 27.8013 29.1084C28.9226 27.2525 29.9804 25.6682 30.8128 23.6489Z" fill="#1F1F1F"/>
<path d="M14.1804 22.7104C13.7668 21.8853 13.3771 21.0522 12.9874 20.2192C12.5977 19.3967 12.1788 18.5374 11.9482 17.6226C11.7017 16.7158 11.532 15.7694 11.5665 14.7967C11.5983 13.8318 11.8316 12.8143 12.4333 11.9575C13.0325 11.1008 13.9762 10.5314 14.9253 10.2414C15.8637 9.94614 16.8446 9.79325 17.8361 9.84597C18.8276 9.88024 19.7607 10.1122 20.6382 10.2519C21.5183 10.4101 22.3773 10.4602 23.2495 10.3811L23.162 10.3969C24.4716 10.078 25.7653 9.94351 27.0987 9.96987C28.4163 10.0068 29.8081 10.2467 30.9772 11.0428C31.5551 11.4382 32.0243 12.0076 32.3027 12.6403C32.589 13.273 32.6871 13.9557 32.6765 14.6148C32.6393 15.9355 32.2815 17.1824 31.7804 18.3528C32.0773 17.1217 32.3186 15.859 32.2019 14.6332C32.1357 14.0269 31.9951 13.4338 31.7141 12.9276C31.4384 12.4162 31.0249 12.0076 30.5371 11.7071C29.5483 11.1034 28.3023 10.9637 27.0908 10.9611C25.874 10.9742 24.6174 11.1667 23.4509 11.454L23.4006 11.4672L23.3608 11.4725C22.3932 11.5726 21.3938 11.5252 20.4526 11.3644C19.5115 11.2036 18.642 10.9795 17.7831 10.9426C16.9295 10.8925 16.0573 11.0085 15.2275 11.2326C14.4163 11.4567 13.6846 11.8784 13.1968 12.5217C12.6984 13.1543 12.4413 13.9874 12.3697 14.8467C12.3008 15.7088 12.3724 16.6051 12.55 17.4829C12.6401 17.9205 12.7488 18.3581 12.8787 18.7904L13.3135 20.0901C13.613 20.9573 13.9073 21.8299 14.1804 22.7104Z" fill="#1F1F1F"/>
<path d="M31.836 25.5944V21.0945L28.7263 23.9784L30.8127 23.6489L31.836 25.5944Z" fill="#1F1F1F"/>
<path d="M34.4393 44H9.80609C4.40068 44 0 39.624 0 34.2462V9.75376C0 4.37601 4.40068 0 9.80609 0H34.4393C39.8473 0 44.2454 4.37601 44.2454 9.75376V34.2489C44.248 39.624 39.8473 44 34.4393 44ZM9.80609 1.68977C5.33648 1.68977 1.6993 5.30657 1.6993 9.75376V34.2489C1.6993 38.6934 5.33648 42.3102 9.80609 42.3102H34.4393C38.9089 42.3102 42.5461 38.6934 42.5461 34.2489V9.75376C42.5461 5.30921 38.9089 1.69241 34.4393 1.69241H9.80609V1.68977Z" fill="#EAC748"/>
<path d="M62.813 18.5558C63.1921 19.112 63.383 19.7078 63.383 20.3431C63.383 20.8914 63.2478 21.4134 62.9801 21.909C62.7123 22.4046 62.3226 22.8395 61.8163 23.2086C60.7718 23.9493 59.5576 24.3184 58.1711 24.3184C57.4845 24.3184 56.8297 24.2209 56.2041 24.0284C55.5784 23.836 55.0191 23.5618 54.526 23.2059C53.675 22.5838 53.1607 21.822 52.9831 20.9178L53.9454 20.3853C53.9905 21.1998 54.3934 21.8668 55.1516 22.3861C55.5387 22.6813 55.9946 22.9081 56.5142 23.0636C57.0365 23.2191 57.5879 23.2982 58.1685 23.2982C59.3614 23.2982 60.3662 22.9951 61.188 22.3861C61.978 21.8088 62.373 21.1287 62.373 20.3431C62.373 19.8844 62.2272 19.4547 61.9382 19.054C61.6466 18.6533 61.241 18.3132 60.7187 18.0312C60.2257 17.7781 59.3482 17.5804 58.081 17.4301C57.9776 17.417 57.6012 17.3563 56.9517 17.2535C56.3022 17.1507 55.7481 16.9873 55.2868 16.7658C54.5551 16.4099 53.9825 15.9407 53.5663 15.3555C53.1501 14.7703 52.9407 14.1376 52.9407 13.4548C52.9407 12.9065 53.0785 12.3924 53.3542 11.91C53.6299 11.4303 54.0223 11.0032 54.5286 10.6315C55.0217 10.2756 55.5784 10.0015 56.2067 9.80902C56.8324 9.61658 57.4898 9.51904 58.1738 9.51904C59.5602 9.51904 60.7744 9.89074 61.8189 10.6289C62.6831 11.28 63.1895 12.0366 63.3406 12.896L62.3783 13.4285C62.3624 13.0594 62.2563 12.7035 62.0549 12.3608C61.8534 12.0208 61.5671 11.7097 61.1933 11.4276C60.7903 11.1324 60.329 10.9057 59.8068 10.7501C59.2845 10.5946 58.7411 10.5181 58.1738 10.5181C57.6065 10.5181 57.0603 10.5972 56.5301 10.7501C55.9999 10.9057 55.5413 11.1324 55.1543 11.4276C54.7672 11.7097 54.4677 12.0234 54.2609 12.3714C54.0514 12.7193 53.9481 13.0778 53.9481 13.4495C53.9481 13.9082 54.1204 14.3643 54.4624 14.8151C54.8043 15.2659 55.2311 15.6191 55.7375 15.8695C56.0503 16.0172 56.3976 16.1252 56.7767 16.1911C57.1558 16.257 57.6436 16.3282 58.24 16.402C58.3434 16.4179 58.6059 16.4548 59.0221 16.5128C59.4383 16.5734 59.8413 16.6525 60.2283 16.7579C60.6154 16.8634 60.9441 16.9873 61.2118 17.1349C61.8984 17.5303 62.4339 18.0022 62.813 18.5558Z" fill="#1F1F1F"/>
<path d="M79.3261 9.70361V10.7264H73.5787V24.1445H72.5501V10.7264H66.7815V9.70361H79.3261Z" fill="#1F1F1F"/>
<path d="M89.4557 24.3C88.1275 24.3 86.8974 23.9705 85.7655 23.3114C84.6335 22.6524 83.7374 21.7561 83.0826 20.6226C82.4252 19.489 82.0991 18.2553 82.0991 16.924C82.0991 15.5928 82.4278 14.3591 83.0826 13.2255C83.7374 12.092 84.6335 11.1957 85.7655 10.5367C86.8974 9.87761 88.1275 9.5481 89.4557 9.5481C90.7812 9.5481 92.0112 9.87761 93.1459 10.5367C94.2779 11.1957 95.1739 12.092 95.8287 13.2255C96.4835 14.3591 96.8122 15.5928 96.8122 16.924C96.8122 18.2553 96.4835 19.489 95.8287 20.6226C95.1739 21.7561 94.2779 22.6524 93.1459 23.3114C92.0112 23.9705 90.7812 24.3 89.4557 24.3ZM89.4557 10.5709C88.3078 10.5709 87.25 10.8556 86.2798 11.425C85.3095 11.9944 84.5381 12.7668 83.9654 13.7343C83.3902 14.7044 83.1039 15.7668 83.1039 16.9214C83.1039 18.076 83.3902 19.1384 83.9654 20.1085C84.5381 21.0786 85.3095 21.8484 86.2798 22.4178C87.2474 22.9872 88.3078 23.2719 89.4557 23.2719C90.6036 23.2719 91.6613 22.9872 92.6316 22.4178C93.5992 21.8484 94.368 21.0786 94.9353 20.1085C95.5026 19.1384 95.7836 18.076 95.7836 16.9214C95.7836 15.7668 95.5 14.7044 94.9353 13.7343C94.368 12.7642 93.6019 11.9944 92.6316 11.425C91.6613 10.8556 90.6036 10.5709 89.4557 10.5709Z" fill="#1F1F1F"/>
<path d="M115.17 24.1443V12.7245L108.731 21.8561L102.202 12.7034V24.1443H101.194V9.52686L108.731 20.1031L116.178 9.52686V24.1443H115.17Z" fill="#1F1F1F"/>
<path d="M123.309 20.4774L121.589 24.1443H120.47L127.312 9.52686L133.775 24.1443H132.681L131.047 20.4774H123.309ZM127.267 11.9917L123.778 19.4783H130.599L127.267 11.9917Z" fill="#1F1F1F"/>
<path d="M138.067 24.1444L138.046 9.70361H143.234C144.085 9.70361 144.87 9.88814 145.594 10.2598C146.317 10.6289 146.89 11.1271 147.314 11.7493C147.738 12.3714 147.95 13.0542 147.95 13.7923C147.95 14.5172 147.738 15.1947 147.314 15.8248C146.89 16.4548 146.315 16.9557 145.594 17.3247C144.87 17.6938 144.085 17.881 143.234 17.881H139.072V24.1471H138.067V24.1444ZM139.072 16.8344H143.232C143.902 16.8344 144.52 16.6973 145.087 16.4232C145.655 16.149 146.105 15.7773 146.439 15.3133C146.776 14.8467 146.943 14.3406 146.943 13.7923C146.943 13.2308 146.776 12.7141 146.439 12.2475C146.103 11.7809 145.652 11.4118 145.087 11.1377C144.52 10.8635 143.902 10.7264 143.232 10.7264H139.051L139.072 16.8344Z" fill="#1F1F1F"/>
<path d="M152.489 24.1444L152.468 9.70361H157.656C158.507 9.70361 159.291 9.88814 160.015 10.2598C160.739 10.6289 161.311 11.1271 161.735 11.7493C162.16 12.3714 162.372 13.0542 162.372 13.7923C162.372 14.5172 162.16 15.1947 161.735 15.8248C161.311 16.4548 160.736 16.9557 160.015 17.3247C159.291 17.6938 158.507 17.881 157.656 17.881H153.493V24.1471H152.489V24.1444ZM153.493 16.8344H157.653C158.324 16.8344 158.941 16.6973 159.509 16.4232C160.076 16.149 160.527 15.7773 160.861 15.3133C161.197 14.8467 161.364 14.3406 161.364 13.7923C161.364 13.2308 161.197 12.7141 160.861 12.2475C160.524 11.7809 160.073 11.4118 159.509 11.1377C158.941 10.8635 158.324 10.7264 157.653 10.7264H153.472L153.493 16.8344Z" fill="#1F1F1F"/>
<path d="M54.3484 33.0334L53.7149 34.3831H53.304L55.8224 29.0054L58.2004 34.3831H57.7974L57.1956 33.0334H54.3484ZM55.8065 29.9122L54.5234 32.667H57.0313L55.8065 29.9122Z" fill="#1F1F1F"/>
<path d="M62.6566 34.3831L62.6487 29.0713H64.5574C64.8702 29.0713 65.1592 29.1398 65.4243 29.2743C65.6894 29.4114 65.9015 29.5932 66.0579 29.8226C66.2143 30.0519 66.2912 30.3024 66.2912 30.5739C66.2912 30.8401 66.2143 31.0906 66.0579 31.3226C65.9015 31.5545 65.6894 31.7391 65.4243 31.8735C65.1592 32.0106 64.8702 32.0791 64.5574 32.0791H63.0278V34.3831H62.6566ZM63.0278 31.6943H64.5574C64.8039 31.6943 65.0319 31.6442 65.2414 31.544C65.4508 31.4438 65.6152 31.3067 65.7398 31.1354C65.8643 30.964 65.9253 30.7769 65.9253 30.5765C65.9253 30.3683 65.8643 30.1811 65.7398 30.0098C65.6152 29.8384 65.4508 29.7013 65.2414 29.6012C65.0319 29.501 64.8066 29.4509 64.5574 29.4509H63.0198L63.0278 31.6943Z" fill="#1F1F1F"/>
<path d="M70.8429 34.3831L70.835 29.0713H72.7437C73.0565 29.0713 73.3455 29.1398 73.6106 29.2743C73.8757 29.4114 74.0878 29.5932 74.2442 29.8226C74.4006 30.0519 74.4775 30.3024 74.4775 30.5739C74.4775 30.8401 74.4006 31.0906 74.2442 31.3226C74.0878 31.5545 73.8757 31.7391 73.6106 31.8735C73.3455 32.0106 73.0565 32.0791 72.7437 32.0791H71.2141V34.3831H70.8429ZM71.2141 31.6943H72.7437C72.9902 31.6943 73.2182 31.6442 73.4277 31.544C73.6371 31.4438 73.8014 31.3067 73.926 31.1354C74.0506 30.964 74.1116 30.7769 74.1116 30.5765C74.1116 30.3683 74.0506 30.1811 73.926 30.0098C73.8014 29.8384 73.6371 29.7013 73.4277 29.6012C73.2182 29.501 72.9929 29.4509 72.7437 29.4509H71.2061L71.2141 31.6943Z" fill="#1F1F1F"/>
<path d="M85.0417 34.3831V29.0713H88.504V29.4483H85.4102V31.5414H87.828V31.9262H85.4102V34.3858H85.0417V34.3831Z" fill="#1F1F1F"/>
<path d="M95.3331 34.4411C94.8454 34.4411 94.392 34.3198 93.9758 34.0773C93.5596 33.8348 93.2309 33.5052 92.9897 33.0887C92.7484 32.6722 92.6265 32.2188 92.6265 31.7285C92.6265 31.2381 92.7458 30.7847 92.9897 30.3682C93.2309 29.9517 93.5596 29.6222 93.9758 29.3797C94.392 29.1371 94.8454 29.0159 95.3331 29.0159C95.8209 29.0159 96.2743 29.1371 96.6905 29.3797C97.1067 29.6222 97.4354 29.9517 97.6766 30.3682C97.9179 30.7847 98.0398 31.2381 98.0398 31.7285C98.0398 32.2188 97.9179 32.6722 97.6766 33.0887C97.4354 33.5052 97.1067 33.8348 96.6905 34.0773C96.2743 34.3198 95.8209 34.4411 95.3331 34.4411ZM95.3331 29.3902C94.9116 29.3902 94.5219 29.4956 94.1641 29.7039C93.8062 29.9148 93.5225 30.1969 93.3131 30.5527C93.101 30.9086 92.995 31.3014 92.995 31.7258C92.995 32.1503 93.101 32.543 93.3131 32.8989C93.5252 33.2548 93.8088 33.5395 94.1641 33.7504C94.5193 33.9587 94.909 34.0641 95.3331 34.0641C95.7573 34.0641 96.1444 33.9587 96.5022 33.7504C96.8575 33.5395 97.1411 33.2574 97.3506 32.8989C97.56 32.543 97.6634 32.1503 97.6634 31.7258C97.6634 31.3014 97.56 30.9086 97.3506 30.5527C97.1411 30.1969 96.8601 29.9122 96.5022 29.7039C96.1444 29.4956 95.7547 29.3902 95.3331 29.3902Z" fill="#1F1F1F"/>
<path d="M105.68 34.3831L103.458 31.7022H104.116C104.522 31.7022 104.85 31.6494 105.102 31.5466C105.288 31.4596 105.449 31.3278 105.587 31.1512C105.725 30.9746 105.794 30.7795 105.794 30.566C105.794 30.3762 105.736 30.1943 105.622 30.0229C105.508 29.8516 105.343 29.7119 105.129 29.6012C104.914 29.4931 104.667 29.4377 104.389 29.4377H102.891V34.3831H102.52V29.0713H104.386C104.638 29.0713 104.874 29.1108 105.094 29.1899C105.314 29.269 105.505 29.3824 105.669 29.53C105.828 29.6723 105.95 29.8331 106.035 30.0124C106.12 30.1917 106.163 30.3762 106.163 30.5686C106.163 30.8691 106.072 31.1354 105.892 31.3726C105.712 31.6099 105.497 31.7813 105.251 31.8841C105.081 31.9605 104.914 32.008 104.752 32.0264C104.59 32.0449 104.418 32.0554 104.238 32.0554L106.17 34.3858H105.68V34.3831Z" fill="#1F1F1F"/>
<path d="M118.455 34.3831H116.917V29.0713H118.455C118.834 29.0713 119.184 29.1398 119.508 29.2795C119.831 29.4193 120.112 29.617 120.345 29.8727C120.571 30.1178 120.743 30.3973 120.862 30.7136C120.981 31.0299 121.042 31.3647 121.042 31.718C121.042 32.0712 120.981 32.4087 120.862 32.7224C120.743 33.0361 120.568 33.3208 120.345 33.5738C120.109 33.8348 119.831 34.0352 119.508 34.1749C119.184 34.3146 118.834 34.3831 118.455 34.3831ZM117.289 34.0141H118.458C119.12 34.0141 119.661 33.7821 120.077 33.3208C120.268 33.1125 120.417 32.8726 120.518 32.5985C120.618 32.3243 120.669 32.0317 120.669 31.7206C120.669 31.4148 120.618 31.1249 120.518 30.8507C120.417 30.5765 120.268 30.334 120.077 30.1284C119.656 29.6776 119.115 29.4509 118.458 29.4509H117.289V34.0141Z" fill="#1F1F1F"/>
<path d="M125.578 34.3831V29.0713H129.041V29.4483H125.95V31.5414H128.359V31.9183H125.95V34.0035H129.043V34.3884H125.578V34.3831Z" fill="#1F1F1F"/>
<path d="M134.117 30.0677V34.3831H133.746V29.0054L137.447 33.4025V29.0713H137.818V34.4727L134.117 30.0677Z" fill="#1F1F1F"/>
<path d="M146.877 29.0712V29.4482H144.761V34.3857H144.382V29.4456H142.259V29.0686H146.877V29.0712Z" fill="#1F1F1F"/>
<path d="M151.328 33.0334L150.694 34.3831H150.283L152.802 29.0054L155.18 34.3831H154.777L154.175 33.0334H151.328ZM152.783 29.9122L151.5 32.667H154.008L152.783 29.9122Z" fill="#1F1F1F"/>
<path d="M159.628 34.3831V29.0713H159.999V34.0167H163.003V34.3858H159.628V34.3831Z" fill="#1F1F1F"/>
</g>
<defs>
<clipPath id="clip0_416_1002">
<rect width="163" height="44" fill="white"/>
</clipPath>
</defs>
</svg>
