<svg width="216" height="58" viewBox="0 0 216 58" fill="none" xmlns="http://www.w3.org/2000/svg">
<g clip-path="url(#clip0_439_1014)">
<path d="M40.8316 31.1736C39.9814 33.9292 38.8502 36.6049 37.438 39.1416C36.7319 40.4099 35.952 41.647 35.0175 42.7833C34.0971 43.9231 33.0362 44.9829 31.754 45.7856C31.1427 46.1748 30.3136 46.5432 29.4846 46.4459C28.659 46.3729 27.9283 46.0011 27.3135 45.5528C26.0875 44.6354 25.1847 43.4435 24.3837 42.2273C22.8415 39.7428 21.6822 37.074 20.8215 34.3219C21.4082 35.6389 21.893 36.4381 22.5675 37.703C23.2314 38.9748 23.9516 40.2188 24.7701 41.3829C25.5746 42.547 26.4704 43.6833 27.5911 44.4825C28.1461 44.8752 28.7714 45.1636 29.4038 45.2053C30.0467 45.2644 30.6298 45.042 31.2411 44.6702C32.4285 43.9509 33.4613 42.9536 34.3676 41.8625C35.274 40.7679 36.0855 39.5899 36.8408 38.3702C38.3268 35.9238 39.7285 33.8354 40.8316 31.1736Z" fill="#1F1F1F"/>
<path d="M18.791 29.9365C18.243 28.8489 17.7266 27.7508 17.2101 26.6527C16.6937 25.5685 16.1387 24.4357 15.833 23.2299C15.5063 22.0345 15.2815 20.787 15.3272 19.5048C15.3693 18.233 15.6785 16.8916 16.4759 15.7623C17.2699 14.6329 18.5205 13.8824 19.7781 13.5001C21.0217 13.1109 22.3216 12.9094 23.6354 12.9789C24.9493 13.0241 26.1858 13.3298 27.3486 13.514C28.515 13.7225 29.6532 13.7885 30.8089 13.6843L30.693 13.7051C32.4284 13.2847 34.1428 13.1075 35.9098 13.1422C37.6558 13.1908 39.5001 13.5071 41.0493 14.5565C41.8152 15.0777 42.437 15.8283 42.8058 16.6623C43.1852 17.4963 43.3152 18.3963 43.3012 19.265C43.252 21.006 42.7777 22.6496 42.1138 24.1925C42.5072 22.5697 42.8269 20.9052 42.6723 19.2893C42.5845 18.4901 42.3983 17.7083 42.0259 17.0411C41.6606 16.3669 41.1126 15.8283 40.4662 15.4322C39.1558 14.6364 37.5047 14.4522 35.8993 14.4488C34.2868 14.4661 32.6217 14.7198 31.0759 15.0986L31.0092 15.116L30.9565 15.1229C29.6743 15.255 28.3499 15.1924 27.1027 14.9804C25.8556 14.7685 24.7034 14.4731 23.5652 14.4244C22.434 14.3584 21.2782 14.5113 20.1786 14.8067C19.1036 15.1021 18.1341 15.658 17.4877 16.5059C16.8272 17.3399 16.4865 18.438 16.3916 19.5708C16.3003 20.7071 16.3951 21.8886 16.6305 23.0457C16.7499 23.6226 16.894 24.1994 17.0661 24.7693L17.6422 26.4824C18.0392 27.6257 18.4292 28.7759 18.791 29.9365Z" fill="#1F1F1F"/>
<path d="M42.1875 33.7381V27.8064L38.0668 31.608L40.8315 31.1736L42.1875 33.7381Z" fill="#1F1F1F"/>
<path d="M45.6373 58H12.9946C5.83157 58 0 52.2316 0 45.1428V12.8572C0 5.76838 5.83157 0 12.9946 0H45.6373C52.8038 0 58.6319 5.76838 58.6319 12.8572V45.1462C58.6354 52.2316 52.8038 58 45.6373 58ZM12.9946 2.22743C7.07166 2.22743 2.25183 6.99503 2.25183 12.8572V45.1462C2.25183 51.005 7.07166 55.7726 12.9946 55.7726H45.6373C51.5602 55.7726 56.3801 51.005 56.3801 45.1462V12.8572C56.3801 6.9985 51.5602 2.2309 45.6373 2.2309H12.9946V2.22743Z" fill="#EAC748"/>
<path d="M83.2369 24.4599C83.7393 25.1931 83.9922 25.9784 83.9922 26.8159C83.9922 27.5387 83.8131 28.2267 83.4583 28.88C83.1034 29.5333 82.587 30.1067 81.9161 30.5932C80.5319 31.5696 78.923 32.0561 77.0857 32.0561C76.1758 32.0561 75.3081 31.9275 74.479 31.6739C73.65 31.4202 72.9087 31.0588 72.2553 30.5897C71.1276 29.7696 70.4461 28.7653 70.2108 27.5734L71.486 26.8715C71.5457 27.9453 72.0797 28.8244 73.0844 29.509C73.5973 29.8982 74.2015 30.197 74.8901 30.402C75.5821 30.607 76.3128 30.7113 77.0822 30.7113C78.663 30.7113 79.9944 30.3117 81.0835 29.509C82.1303 28.748 82.6538 27.8514 82.6538 26.8159C82.6538 26.2113 82.4606 25.6449 82.0777 25.1167C81.6912 24.5885 81.1537 24.1402 80.4617 23.7684C79.8083 23.4348 78.6455 23.1742 76.9662 22.9761C76.8292 22.9587 76.3304 22.8788 75.4697 22.7433C74.609 22.6078 73.8748 22.3923 73.2635 22.1004C72.294 21.6313 71.5351 21.0128 70.9836 20.2413C70.4321 19.4699 70.1545 18.6359 70.1545 17.7359C70.1545 17.0131 70.3372 16.3355 70.7026 15.6996C71.0679 15.0672 71.5878 14.5042 72.2588 14.0143C72.9122 13.5452 73.65 13.1838 74.4826 12.9301C75.3116 12.6764 76.1828 12.5479 77.0892 12.5479C78.9265 12.5479 80.5354 13.0378 81.9196 14.0108C83.0648 14.8691 83.7358 15.8664 83.936 16.9992L82.6608 17.7012C82.6397 17.2147 82.4992 16.7456 82.2322 16.2938C81.9652 15.8456 81.5858 15.4355 81.0905 15.0637C80.5565 14.6745 79.9453 14.3757 79.2532 14.1706C78.5611 13.9656 77.841 13.8648 77.0892 13.8648C76.3374 13.8648 75.6137 13.9691 74.9111 14.1706C74.2085 14.3757 73.6008 14.6745 73.0879 15.0637C72.575 15.4355 72.178 15.849 71.904 16.3077C71.6265 16.7664 71.4895 17.239 71.4895 17.729C71.4895 18.3336 71.7178 18.9348 72.171 19.529C72.6242 20.1232 73.1898 20.5888 73.8608 20.919C74.2753 21.1135 74.7355 21.256 75.2378 21.3429C75.7402 21.4298 76.3866 21.5236 77.177 21.6209C77.314 21.6417 77.6618 21.6904 78.2134 21.7668C78.7649 21.8468 79.2989 21.951 79.8118 22.09C80.3247 22.229 80.7603 22.3923 81.1151 22.5869C82.025 23.1082 82.7346 23.7302 83.2369 24.4599Z" fill="#1F1F1F"/>
<path d="M105.119 12.791V14.1393H97.5032V31.8267H96.1402V14.1393H88.4959V12.791H105.119Z" fill="#1F1F1F"/>
<path d="M118.543 32.0319C116.782 32.0319 115.152 31.5975 113.652 30.7288C112.152 29.86 110.965 28.6786 110.097 27.1844C109.226 25.6901 108.794 24.0639 108.794 22.309C108.794 20.5542 109.23 18.9279 110.097 17.4337C110.965 15.9395 112.152 14.758 113.652 13.8893C115.152 13.0205 116.782 12.5862 118.543 12.5862C120.299 12.5862 121.929 13.0205 123.433 13.8893C124.933 14.758 126.12 15.9395 126.988 17.4337C127.855 18.9279 128.291 20.5542 128.291 22.309C128.291 24.0639 127.855 25.6901 126.988 27.1844C126.12 28.6786 124.933 29.86 123.433 30.7288C121.929 31.5975 120.299 32.0319 118.543 32.0319ZM118.543 13.9345C117.021 13.9345 115.62 14.3097 114.334 15.0603C113.048 15.8109 112.026 16.8291 111.267 18.1044C110.505 19.3831 110.125 20.7835 110.125 22.3056C110.125 23.8276 110.505 25.228 111.267 26.5067C112.026 27.7855 113.048 28.8002 114.334 29.5508C115.616 30.3014 117.021 30.6767 118.543 30.6767C120.064 30.6767 121.465 30.3014 122.751 29.5508C124.033 28.8002 125.052 27.7855 125.804 26.5067C126.556 25.228 126.928 23.8276 126.928 22.3056C126.928 20.7835 126.552 19.3831 125.804 18.1044C125.052 16.8256 124.037 15.8109 122.751 15.0603C121.465 14.3097 120.064 13.9345 118.543 13.9345Z" fill="#1F1F1F"/>
<path d="M152.619 31.8268V16.7734L144.086 28.8106L135.433 16.7456V31.8268H134.098V12.5583L144.086 26.4998L153.954 12.5583V31.8268H152.619Z" fill="#1F1F1F"/>
<path d="M163.403 26.9932L161.124 31.8268H159.641L168.708 12.5583L177.273 31.8268H175.822L173.658 26.9932H163.403ZM168.648 15.8074L164.025 25.6762H173.064L168.648 15.8074Z" fill="#1F1F1F"/>
<path d="M182.96 31.8267L182.932 12.791H189.807C190.935 12.791 191.975 13.0343 192.934 13.5242C193.893 14.0107 194.652 14.6675 195.214 15.4876C195.776 16.3076 196.057 17.2076 196.057 18.1806C196.057 19.1362 195.776 20.0293 195.214 20.8598C194.652 21.6903 193.889 22.3505 192.934 22.837C191.975 23.3235 190.935 23.5702 189.807 23.5702H184.292V31.8301H182.96V31.8267ZM184.292 22.1907H189.804C190.692 22.1907 191.511 22.01 192.263 21.6486C193.015 21.2872 193.612 20.7972 194.054 20.1857C194.501 19.5706 194.722 18.9034 194.722 18.1806C194.722 17.4405 194.501 16.7594 194.054 16.1443C193.608 15.5293 193.011 15.0428 192.263 14.6814C191.511 14.32 190.692 14.1393 189.804 14.1393H184.264L184.292 22.1907Z" fill="#1F1F1F"/>
<path d="M202.071 31.8267L202.043 12.791H208.918C210.046 12.791 211.085 13.0343 212.044 13.5242C213.003 14.0107 213.762 14.6675 214.324 15.4876C214.886 16.3076 215.167 17.2076 215.167 18.1806C215.167 19.1362 214.886 20.0293 214.324 20.8598C213.762 21.6903 213 22.3505 212.044 22.837C211.085 23.3235 210.046 23.5702 208.918 23.5702H203.402V31.8301H202.071V31.8267ZM203.402 22.1907H208.914C209.803 22.1907 210.622 22.01 211.373 21.6486C212.125 21.2872 212.722 20.7972 213.165 20.1857C213.611 19.5706 213.833 18.9034 213.833 18.1806C213.833 17.4405 213.611 16.7594 213.165 16.1443C212.719 15.5293 212.122 15.0428 211.373 14.6814C210.622 14.32 209.803 14.1393 208.914 14.1393H203.374L203.402 22.1907Z" fill="#1F1F1F"/>
<path d="M72.02 43.5443L71.1804 45.3235H70.6359L73.9732 38.2346L77.1244 45.3235H76.5904L75.7929 43.5443H72.02ZM73.9521 39.43L72.2518 43.0613H75.5751L73.9521 39.43Z" fill="#1F1F1F"/>
<path d="M83.0297 45.3235L83.0192 38.3215H85.5485C85.963 38.3215 86.346 38.4119 86.6973 38.5891C87.0486 38.7698 87.3296 39.0096 87.5369 39.3119C87.7441 39.6142 87.846 39.9443 87.846 40.3022C87.846 40.6532 87.7441 40.9833 87.5369 41.2891C87.3296 41.5949 87.0486 41.8382 86.6973 42.0154C86.346 42.1961 85.963 42.2864 85.5485 42.2864H83.5215V45.3235H83.0297ZM83.5215 41.7791H85.5485C85.8752 41.7791 86.1773 41.7131 86.4549 41.581C86.7324 41.449 86.9502 41.2683 87.1153 41.0424C87.2804 40.8165 87.3612 40.5698 87.3612 40.3057C87.3612 40.0312 87.2804 39.7845 87.1153 39.5586C86.9502 39.3327 86.7324 39.152 86.4549 39.02C86.1773 38.8879 85.8787 38.8219 85.5485 38.8219H83.511L83.5215 41.7791Z" fill="#1F1F1F"/>
<path d="M93.8778 45.3235L93.8673 38.3215H96.3967C96.8112 38.3215 97.1941 38.4119 97.5454 38.5891C97.8967 38.7698 98.1778 39.0096 98.385 39.3119C98.5923 39.6142 98.6942 39.9443 98.6942 40.3022C98.6942 40.6532 98.5923 40.9833 98.385 41.2891C98.1778 41.5949 97.8967 41.8382 97.5454 42.0154C97.1941 42.1961 96.8112 42.2864 96.3967 42.2864H94.3697V45.3235H93.8778ZM94.3697 41.7791H96.3967C96.7234 41.7791 97.0255 41.7131 97.303 41.581C97.5806 41.449 97.7984 41.2683 97.9635 41.0424C98.1286 40.8165 98.2094 40.5698 98.2094 40.3057C98.2094 40.0312 98.1286 39.7845 97.9635 39.5586C97.7984 39.3327 97.5806 39.152 97.303 39.02C97.0255 38.8879 96.7269 38.8219 96.3967 38.8219H94.3591L94.3697 41.7791Z" fill="#1F1F1F"/>
<path d="M112.693 45.3235V38.3215H117.281V38.8184H113.182V41.5775H116.386V42.0849H113.182V45.327H112.693V45.3235Z" fill="#1F1F1F"/>
<path d="M126.331 45.3999C125.685 45.3999 125.084 45.2401 124.532 44.9204C123.981 44.6007 123.545 44.1663 123.225 43.6173C122.906 43.0683 122.744 42.4706 122.744 41.8242C122.744 41.1779 122.902 40.5802 123.225 40.0312C123.545 39.4821 123.981 39.0478 124.532 38.7281C125.084 38.4084 125.685 38.2485 126.331 38.2485C126.977 38.2485 127.578 38.4084 128.13 38.7281C128.681 39.0478 129.117 39.4821 129.436 40.0312C129.756 40.5802 129.918 41.1779 129.918 41.8242C129.918 42.4706 129.756 43.0683 129.436 43.6173C129.117 44.1663 128.681 44.6007 128.13 44.9204C127.578 45.2401 126.977 45.3999 126.331 45.3999ZM126.331 38.742C125.772 38.742 125.256 38.881 124.782 39.1555C124.307 39.4335 123.932 39.8053 123.654 40.2744C123.373 40.7435 123.232 41.2613 123.232 41.8208C123.232 42.3802 123.373 42.898 123.654 43.3671C123.935 43.8362 124.311 44.2115 124.782 44.4895C125.252 44.764 125.769 44.903 126.331 44.903C126.893 44.903 127.406 44.764 127.88 44.4895C128.351 44.2115 128.727 43.8397 129.004 43.3671C129.282 42.898 129.419 42.3802 129.419 41.8208C129.419 41.2613 129.282 40.7435 129.004 40.2744C128.727 39.8053 128.354 39.43 127.88 39.1555C127.406 38.881 126.889 38.742 126.331 38.742Z" fill="#1F1F1F"/>
<path d="M140.042 45.3235L137.098 41.7895H137.969C138.507 41.7895 138.943 41.72 139.276 41.5845C139.522 41.4698 139.736 41.2961 139.919 41.0632C140.102 40.8304 140.193 40.5733 140.193 40.2918C140.193 40.0416 140.116 39.8019 139.965 39.576C139.814 39.3501 139.596 39.1659 139.311 39.02C139.027 38.8775 138.7 38.8045 138.331 38.8045H136.346V45.3235H135.855V38.3215H138.328C138.661 38.3215 138.974 38.3737 139.266 38.4779C139.557 38.5822 139.81 38.7316 140.028 38.9262C140.239 39.1138 140.4 39.3258 140.513 39.5621C140.625 39.7984 140.681 40.0416 140.681 40.2953C140.681 40.6914 140.562 41.0424 140.323 41.3551C140.084 41.6679 139.8 41.8938 139.473 42.0293C139.248 42.1301 139.027 42.1926 138.813 42.2169C138.598 42.2412 138.37 42.2551 138.131 42.2551L140.692 45.327H140.042V45.3235Z" fill="#1F1F1F"/>
<path d="M156.971 45.3235H154.934V38.3215H156.971C157.474 38.3215 157.937 38.4119 158.366 38.5961C158.794 38.7802 159.167 39.0408 159.476 39.3779C159.775 39.7011 160.003 40.0694 160.161 40.4864C160.319 40.9034 160.4 41.3447 160.4 41.8104C160.4 42.276 160.319 42.7208 160.161 43.1343C160.003 43.5478 159.771 43.9231 159.476 44.2567C159.163 44.6007 158.794 44.8648 158.366 45.049C157.937 45.2332 157.474 45.3235 156.971 45.3235ZM155.426 44.837H156.975C157.853 44.837 158.57 44.5312 159.121 43.9231C159.374 43.6486 159.571 43.3324 159.704 42.971C159.838 42.6096 159.905 42.2239 159.905 41.8138C159.905 41.4107 159.838 41.0285 159.704 40.6671C159.571 40.3057 159.374 39.986 159.121 39.715C158.563 39.1208 157.846 38.8219 156.975 38.8219H155.426V44.837Z" fill="#1F1F1F"/>
<path d="M166.411 45.3235V38.3215H170.999V38.8184H166.902V41.5775H170.096V42.0745H166.902V44.8231H171.002V45.3305H166.411V45.3235Z" fill="#1F1F1F"/>
<path d="M177.726 39.635V45.3235H177.234V38.2346L182.138 44.0308V38.3215H182.63V45.4416L177.726 39.635Z" fill="#1F1F1F"/>
<path d="M194.634 38.3216V38.8185H191.831V45.327H191.328V38.815H188.514V38.3181H194.634V38.3216Z" fill="#1F1F1F"/>
<path d="M200.532 43.5443L199.693 45.3235H199.148L202.486 38.2346L205.637 45.3235H205.103L204.305 43.5443H200.532ZM202.461 39.43L200.761 43.0613H204.084L202.461 39.43Z" fill="#1F1F1F"/>
<path d="M211.532 45.3235V38.3215H212.023V44.8405H216.004V45.327H211.532V45.3235Z" fill="#1F1F1F"/>
</g>
<defs>
<clipPath id="clip0_439_1014">
<rect width="216" height="58" fill="white"/>
</clipPath>
</defs>
</svg>
