<svg width="30" height="30" viewBox="0 0 30 30" fill="none" xmlns="http://www.w3.org/2000/svg">
<circle cx="15" cy="15" r="15" fill="#FF6948"/>
<path fill-rule="evenodd" clip-rule="evenodd" d="M8.60225 8.60225C8.82192 8.38258 9.17808 8.38258 9.39775 8.60225L21.3977 20.6023C21.6174 20.8219 21.6174 21.1781 21.3977 21.3977C21.1781 21.6174 20.8219 21.6174 20.6023 21.3977L8.60225 9.39775C8.38258 9.17808 8.38258 8.82192 8.60225 8.60225Z" fill="white"/>
<path fill-rule="evenodd" clip-rule="evenodd" d="M21.3977 8.60225C21.6174 8.82192 21.6174 9.17808 21.3977 9.39775L9.39775 21.3977C9.17808 21.6174 8.82192 21.6174 8.60225 21.3977C8.38258 21.1781 8.38258 20.8219 8.60225 20.6023L20.6023 8.60225C20.8219 8.38258 21.1781 8.38258 21.3977 8.60225Z" fill="white"/>
</svg>
