<svg width="42" height="42" viewBox="0 0 42 42" fill="none" xmlns="http://www.w3.org/2000/svg">
<path fill-rule="evenodd" clip-rule="evenodd" d="M13.3571 13.815C12.4661 13.815 11.9103 14.6134 12.1648 15.3678C13.0775 18.0727 14.7784 22.1418 17.3147 24.6782C19.8511 27.2146 23.9202 28.9154 26.6251 29.828C27.3794 30.0826 28.1779 29.5268 28.1779 28.6358V25.8892C28.1779 25.791 28.1247 25.7004 28.0387 25.6526L25.6464 24.3225C25.5682 24.2791 25.4737 24.277 25.3938 24.317L22.8424 25.5927C22.6829 25.6724 22.5015 25.6975 22.3263 25.6639L22.4793 24.8664C22.3263 25.6639 22.3266 25.6639 22.3263 25.6639L22.324 25.6634L22.3209 25.6628L22.3128 25.6612L22.2883 25.6561C22.2684 25.6518 22.2415 25.6459 22.2081 25.638C22.1413 25.6222 22.0484 25.5986 21.9339 25.5656C21.7052 25.4996 21.3884 25.3952 21.0202 25.2383C20.287 24.9258 19.3299 24.3966 18.4631 23.5298C17.5964 22.6631 17.0657 21.7046 16.7518 20.9704C16.5941 20.6016 16.4889 20.2842 16.4224 20.0552C16.389 19.9405 16.3652 19.8474 16.3492 19.7806C16.3412 19.7471 16.3352 19.7202 16.3309 19.7003L16.3258 19.6758L16.3241 19.6677L16.3235 19.6647L16.3233 19.6634C16.3232 19.6631 16.3231 19.6623 17.1201 19.5073L16.3233 19.6634C16.2891 19.4876 16.3137 19.3043 16.3938 19.1441L17.6697 16.5924C17.7096 16.5125 17.7076 16.418 17.6643 16.3399L16.3399 13.9543C16.3399 13.9543 16.3399 13.9543 16.3399 13.9543C16.2922 13.8683 16.2015 13.815 16.1033 13.815H13.3571ZM17.9814 19.6004C17.9816 19.6009 17.9817 19.6013 17.9818 19.6018C18.0329 19.7775 18.1169 20.0321 18.2451 20.332C18.5029 20.935 18.9308 21.7007 19.6115 22.3814C19.6115 22.3814 19.6115 22.3814 19.6115 22.3814L19.0373 22.9556M19.6115 22.3814C20.2921 23.062 21.056 23.4882 21.6569 23.7442C21.9558 23.8716 22.2093 23.9547 22.3843 24.0052C22.3846 24.0053 22.3839 24.0051 22.3843 24.0052L24.6674 22.8644C24.6674 22.8644 24.6674 22.8645 24.6674 22.8644C25.227 22.5846 25.8887 22.5991 26.4355 22.9031L28.8279 24.2332C29.4291 24.5675 29.802 25.2013 29.802 25.8892V28.6358C29.802 30.5421 28.0021 32.0067 26.1059 31.3669C23.367 30.4427 18.9859 28.6461 16.1664 25.8265C13.3468 23.007 11.5502 18.6259 10.626 15.887C9.98623 13.9909 11.4508 12.1909 13.3571 12.1909H16.1033C16.7916 12.1909 17.4257 12.5642 17.7598 13.166L19.0842 15.5517C19.3876 16.0982 19.402 16.7594 19.1223 17.3187C19.1223 17.3187 19.1223 17.3186 19.1223 17.3187L17.9814 19.6004" fill="black"/>
<circle cx="21" cy="21" r="20.5" stroke="black"/>
</svg>
